{"glyphs":{"0":{"ha":944,"x_min":0,"x_max":0,"o":"m 472 -15 b 69 486 214 -15 69 168 b 472 988 69 797 211 988 b 875 486 729 988 875 801 b 472 -15 875 171 735 -15 z m 472 972 b 260 486 356 972 260 893 b 472 0 260 78 356 0 b 685 486 590 0 685 78 b 472 972 685 893 590 972 z "},"1":{"ha":449,"x_min":0,"x_max":0,"o":"m 351 972 b 133 1113 267 972 165 1031 l 119 1113 b 14 972 119 1061 58 972 l 14 957 l 286 957 b 192 944 260 950 226 944 l 192 28 l 219 0 l 235 0 b 379 28 235 0 303 28 l 379 944 z "},"2":{"ha":793,"x_min":0,"x_max":0,"o":"m 717 188 l 132 188 b 715 667 250 286 665 490 b 417 972 768 856 571 988 b 169 972 243 954 169 972 b 88 674 172 838 88 674 l 94 671 b 451 949 94 671 229 933 b 560 747 540 957 619 906 b 97 188 536 679 444 421 l 69 160 l 69 144 b 97 0 69 144 97 76 l 717 0 l 744 28 l 744 43 b 717 188 744 46 717 113 z "},"3":{"ha":833,"x_min":0,"x_max":0,"o":"m 444 525 b 446 988 868 671 826 988 l 69 988 l 69 972 b 149 765 103 950 149 889 l 164 765 b 400 972 164 765 221 972 l 446 972 b 196 486 640 972 733 569 l 196 469 b 424 518 282 481 358 497 b 446 15 664 479 701 15 l 344 15 b 136 222 193 15 136 222 l 121 222 b 42 15 121 99 75 38 l 42 0 l 446 0 b 444 525 861 0 953 497 z "},"4":{"ha":810,"x_min":0,"x_max":0,"o":"m 789 336 b 721 482 789 336 740 393 l 711 482 b 511 340 650 375 589 346 l 511 581 l 483 608 l 468 608 b 324 581 465 608 399 581 l 324 339 l 225 339 l 139 342 b 468 986 218 529 335 783 b 565 1088 499 1032 521 1068 l 563 1104 b 292 1079 442 1064 292 1079 l 261 1049 b 21 88 258 840 44 146 l 35 81 b 115 285 39 90 68 169 b 324 324 167 301 264 317 l 324 28 l 351 0 l 367 0 b 511 28 367 0 435 28 l 511 325 l 789 325 z "},"5":{"ha":842,"x_min":0,"x_max":0,"o":"m 303 578 l 303 960 l 289 972 l 372 972 b 664 765 607 972 664 765 l 679 765 b 758 972 679 889 725 950 l 758 988 l 256 988 b 115 960 253 988 190 960 l 115 483 l 143 456 l 158 456 b 303 483 158 456 226 483 l 303 563 b 474 15 663 678 733 15 l 372 15 b 164 222 221 15 164 222 l 149 222 b 69 15 149 99 103 38 l 69 0 l 474 0 b 303 578 926 0 944 821 z "},"6":{"ha":790,"x_min":0,"x_max":0,"o":"m 385 972 b 742 614 607 942 742 614 l 749 617 b 667 971 749 617 664 811 b 419 988 667 971 593 965 b 42 444 226 1007 42 831 b 381 -14 42 117 197 -14 b 718 317 539 -14 718 103 b 381 621 718 539 572 621 b 231 594 324 621 274 611 l 231 704 b 385 972 231 886 296 982 z m 381 607 b 531 289 481 607 531 558 b 381 -1 531 51 453 -1 b 231 288 267 -1 231 103 l 231 576 b 381 607 281 600 335 607 z "},"7":{"ha":832,"x_min":0,"x_max":0,"o":"m 735 972 l 97 972 l 69 944 l 69 929 b 97 785 69 929 97 861 l 667 785 l 222 122 l 115 1 l 261 1 l 290 31 l 238 122 l 692 785 l 735 785 l 763 813 l 763 828 b 735 972 763 831 735 897 z "},"8":{"ha":799,"x_min":0,"x_max":0,"o":"m 492 546 l 713 674 b 400 986 713 918 542 986 b 78 732 263 986 78 924 b 274 469 74 596 167 526 l 42 328 b 392 -14 42 68 225 -14 b 757 251 551 -14 757 50 b 492 546 760 419 624 482 z m 376 972 b 529 749 497 972 529 874 b 475 554 529 706 529 594 b 247 814 357 610 249 672 b 376 972 247 899 275 972 z m 407 0 b 229 253 267 0 229 108 b 290 461 229 336 239 422 b 585 181 426 390 579 333 b 407 0 585 71 526 0 z "},"9":{"ha":790,"x_min":0,"x_max":0,"o":"m 410 986 b 72 656 251 986 72 869 b 410 351 72 433 218 351 b 560 419 496 351 538 388 l 560 268 b 406 0 560 138 574 -12 b 49 358 183 31 49 358 l 42 356 b 124 1 42 356 126 161 b 371 -15 124 1 197 7 b 749 528 606 -35 749 142 b 410 986 749 856 593 986 z m 410 365 b 260 683 310 365 260 414 b 410 974 260 921 338 974 b 560 685 524 974 560 869 l 560 440 b 410 365 535 404 494 365 z "}," ":{"ha":278,"x_min":0,"x_max":0,"o":""},"A":{"ha":972,"x_min":0,"x_max":0,"o":"m 535 972 l 185 972 l 185 957 b 390 810 279 957 353 897 l 408 771 b 42 11 267 644 42 383 l 42 0 l 526 518 l 754 29 l 781 0 l 799 0 b 951 29 799 0 861 28 z m 242 235 b 418 751 274 503 354 664 l 518 535 z "},"Á":{"ha":972,"x_min":0,"x_max":0,"o":"m 592 1250 l 446 1250 l 417 1221 l 361 1004 l 374 1004 z m 535 972 l 185 972 l 185 957 b 390 810 279 957 353 897 l 408 771 b 42 11 267 644 42 383 l 42 0 l 526 518 l 754 29 l 781 0 l 799 0 b 951 29 799 0 861 28 z m 242 235 b 418 751 274 503 354 664 l 518 535 z "},"Ă":{"ha":972,"x_min":0,"x_max":0,"o":"m 363 1071 b 506 1149 428 1071 476 1107 l 542 1250 l 528 1250 b 363 1158 514 1172 465 1158 b 200 1250 260 1158 214 1172 l 186 1250 l 222 1149 b 363 1071 250 1104 296 1071 z m 535 972 l 185 972 l 185 957 b 390 810 279 957 353 897 l 408 771 b 42 11 267 644 42 383 l 42 0 l 526 518 l 754 29 l 781 0 l 799 0 b 951 29 799 0 861 28 z m 242 235 b 418 751 274 503 354 664 l 518 535 z "},"Â":{"ha":972,"x_min":0,"x_max":0,"o":"m 449 1203 l 693 1004 l 710 1004 l 556 1221 l 515 1250 l 382 1250 l 340 1221 l 186 1004 l 204 1004 z m 535 972 l 185 972 l 185 957 b 390 810 279 957 353 897 l 408 771 b 42 11 267 644 42 383 l 42 0 l 526 518 l 754 29 l 781 0 l 799 0 b 951 29 799 0 861 28 z m 242 235 b 418 751 274 503 354 664 l 518 535 z "},"Ä":{"ha":972,"x_min":0,"x_max":0,"o":"m 231 1032 b 375 1060 231 1032 299 1060 l 375 1222 l 347 1250 l 332 1250 b 188 1222 329 1250 263 1222 l 188 1060 l 215 1032 z m 576 1032 b 721 1060 576 1032 644 1060 l 721 1222 l 693 1250 l 678 1250 b 533 1222 675 1250 608 1222 l 533 1060 l 561 1032 z m 535 972 l 185 972 l 185 957 b 390 810 279 957 353 897 l 408 771 b 42 11 267 644 42 383 l 42 0 l 526 518 l 754 29 l 781 0 l 799 0 b 951 29 799 0 861 28 z m 242 235 b 418 751 274 503 354 664 l 518 535 z "},"À":{"ha":972,"x_min":0,"x_max":0,"o":"m 519 1004 l 464 1221 l 435 1250 l 289 1250 l 507 1004 z m 535 972 l 185 972 l 185 957 b 390 810 279 957 353 897 l 408 771 b 42 11 267 644 42 383 l 42 0 l 526 518 l 754 29 l 781 0 l 799 0 b 951 29 799 0 861 28 z m 242 235 b 418 751 274 503 354 664 l 518 535 z "},"Ā":{"ha":972,"x_min":0,"x_max":0,"o":"m 147 1115 b 628 1143 147 1115 367 1143 l 628 1222 l 600 1250 l 585 1250 b 104 1222 582 1250 367 1222 l 104 1143 l 132 1115 z m 535 972 l 185 972 l 185 957 b 390 810 279 957 353 897 l 408 771 b 42 11 267 644 42 383 l 42 0 l 526 518 l 754 29 l 781 0 l 799 0 b 951 29 799 0 861 28 z m 242 235 b 418 751 274 503 354 664 l 518 535 z "},"Ą":{"ha":972,"x_min":0,"x_max":0,"o":"m 732 -114 l 799 0 b 951 29 804 3 865 28 l 535 972 l 185 972 l 185 957 b 390 810 279 957 353 897 l 408 771 b 42 11 267 644 42 383 l 42 0 l 526 518 l 754 31 l 699 -146 l 707 -151 l 711 -151 l 725 -126 b 764 -326 889 -65 907 -222 l 764 -339 l 817 -354 b 732 -114 1039 -207 903 -54 z m 242 235 b 418 751 274 503 354 664 l 518 535 z "},"Å":{"ha":972,"x_min":0,"x_max":0,"o":"m 379 1050 b 479 1150 435 1050 479 1094 b 379 1250 479 1206 435 1250 b 279 1150 324 1250 279 1206 b 379 1050 279 1094 324 1050 z m 379 1217 b 446 1150 417 1217 446 1186 b 379 1083 446 1113 417 1083 b 313 1150 342 1083 313 1113 b 379 1217 313 1186 342 1217 z m 535 972 l 185 972 l 185 957 b 390 810 279 957 353 897 l 408 771 b 42 11 267 644 42 383 l 42 0 l 526 518 l 754 29 l 781 0 l 799 0 b 951 29 799 0 861 28 z m 242 235 b 418 751 274 503 354 664 l 518 535 z "},"Ã":{"ha":972,"x_min":0,"x_max":0,"o":"m 299 1121 b 564 1103 385 1065 425 1007 l 557 1121 b 292 1240 451 1064 369 1199 l 279 1240 l 153 1135 l 164 1125 b 299 1121 204 1169 243 1157 z m 535 972 l 185 972 l 185 957 b 390 810 279 957 353 897 l 408 771 b 42 11 267 644 42 383 l 42 0 l 526 518 l 754 29 l 781 0 l 799 0 b 951 29 799 0 861 28 z m 242 235 b 418 751 274 503 354 664 l 518 535 z "},"Æ":{"ha":1276,"x_min":0,"x_max":0,"o":"m 1129 156 l 1115 156 b 825 15 1082 71 1007 15 l 617 15 b 714 29 643 22 678 29 l 714 481 l 1088 481 l 1088 496 b 982 636 1043 496 982 585 l 968 636 b 735 496 935 551 864 496 l 714 496 l 714 943 l 701 957 l 1207 957 l 1207 972 b 1101 1113 1163 972 1101 1061 l 1088 1113 b 797 972 1054 1028 979 972 l 469 972 l 460 957 l 625 957 b 528 943 599 950 564 943 l 528 911 b 42 11 376 771 42 376 l 42 0 l 528 519 l 528 29 l 542 15 l 469 15 l 460 0 l 1235 0 l 1235 15 b 1129 156 1190 15 1129 104 z m 242 235 b 528 875 271 485 443 758 l 528 544 z "},"B":{"ha":857,"x_min":0,"x_max":0,"o":"m 472 563 l 472 565 b 697 760 572 575 697 631 b 382 976 697 944 564 976 b 257 938 338 976 289 954 l 257 944 l 229 972 l 214 972 b 69 944 211 972 144 944 l 69 28 l 97 0 l 113 0 b 257 28 113 0 181 28 l 257 56 b 454 -8 317 15 399 -8 b 815 288 628 -8 815 46 b 472 563 815 488 639 563 z m 382 961 b 510 760 496 961 510 865 b 382 571 510 656 510 571 l 257 571 l 257 921 b 382 961 288 938 336 961 z m 454 7 b 257 71 399 7 317 33 l 257 557 l 371 557 b 628 288 538 557 628 479 b 454 7 628 140 621 7 z "},"C":{"ha":974,"x_min":0,"x_max":0,"o":"m 500 972 l 546 972 b 810 765 753 972 810 765 l 825 765 b 904 972 825 889 871 950 l 904 988 l 500 988 b 42 486 239 988 42 797 b 500 -15 42 168 311 -15 b 903 231 764 -15 844 131 l 889 238 b 222 507 715 -29 304 90 b 500 972 153 914 383 972 z "},"Ć":{"ha":974,"x_min":0,"x_max":0,"o":"m 726 1250 l 581 1250 l 551 1221 l 496 1004 l 508 1004 z m 500 972 l 546 972 b 810 765 753 972 810 765 l 825 765 b 904 972 825 889 871 950 l 904 988 l 500 988 b 42 486 239 988 42 797 b 500 -15 42 168 311 -15 b 903 231 764 -15 844 131 l 889 238 b 222 507 715 -29 304 90 b 500 972 153 914 383 972 z "},"Č":{"ha":974,"x_min":0,"x_max":0,"o":"m 435 1004 l 568 1004 l 608 1033 l 763 1250 l 746 1250 l 501 1051 l 257 1250 l 239 1250 l 393 1033 z m 500 972 l 546 972 b 810 765 753 972 810 765 l 825 765 b 904 972 825 889 871 950 l 904 988 l 500 988 b 42 486 239 988 42 797 b 500 -15 42 168 311 -15 b 903 231 764 -15 844 131 l 889 238 b 222 507 715 -29 304 90 b 500 972 153 914 383 972 z "},"Ç":{"ha":974,"x_min":0,"x_max":0,"o":"m 500 972 l 546 972 b 810 765 753 972 810 765 l 825 765 b 904 972 825 889 871 950 l 904 988 l 500 988 b 42 486 239 988 42 797 b 490 -15 42 174 303 -10 l 449 -146 l 457 -151 l 461 -151 l 475 -126 b 514 -326 639 -65 657 -222 l 514 -339 l 567 -354 b 482 -114 789 -207 653 -54 l 540 -14 b 903 231 772 0 847 136 l 889 238 b 222 507 715 -29 304 90 b 500 972 153 914 383 972 z "},"Ċ":{"ha":974,"x_min":0,"x_max":0,"o":"m 449 1032 b 593 1060 449 1032 517 1060 l 593 1222 l 565 1250 l 550 1250 b 406 1222 547 1250 481 1222 l 406 1060 l 433 1032 z m 500 972 l 546 972 b 810 765 753 972 810 765 l 825 765 b 904 972 825 889 871 950 l 904 988 l 500 988 b 42 486 239 988 42 797 b 500 -15 42 168 311 -15 b 903 231 764 -15 844 131 l 889 238 b 222 507 715 -29 304 90 b 500 972 153 914 383 972 z "},"D":{"ha":896,"x_min":0,"x_max":0,"o":"m 422 978 b 256 925 371 978 301 953 l 256 944 l 228 972 l 214 972 b 69 944 213 972 143 944 l 69 28 l 97 0 l 111 0 b 256 28 111 1 181 28 l 256 47 b 422 -15 303 10 358 -15 b 854 482 593 -15 854 147 b 422 978 854 826 593 978 z m 422 0 b 256 69 369 0 307 25 l 256 906 b 422 963 304 936 363 963 b 667 482 583 963 667 790 b 422 0 667 179 583 0 z "},"Ð":{"ha":910,"x_min":0,"x_max":0,"o":"m 436 978 b 269 925 385 978 315 953 l 269 944 l 242 972 l 228 972 b 83 944 226 972 157 944 l 83 472 l 10 472 l 0 457 l 83 457 l 83 28 l 111 0 l 125 0 b 269 28 125 1 194 28 l 269 47 b 436 -15 317 10 372 -15 b 868 482 607 -15 868 147 b 436 978 868 826 607 978 z m 436 0 b 269 69 383 0 321 25 l 269 457 l 668 457 l 668 472 b 563 613 624 472 563 561 l 549 613 b 269 472 515 529 443 475 l 269 906 b 436 963 318 936 376 963 b 681 482 597 963 681 790 b 436 0 681 179 597 0 z "},"Ď":{"ha":896,"x_min":0,"x_max":0,"o":"m 357 1004 l 490 1004 l 531 1033 l 685 1250 l 668 1250 l 424 1051 l 179 1250 l 161 1250 l 315 1033 z m 422 978 b 256 925 371 978 301 953 l 256 944 l 228 972 l 214 972 b 69 944 213 972 143 944 l 69 28 l 97 0 l 111 0 b 256 28 111 1 181 28 l 256 47 b 422 -15 303 10 358 -15 b 854 482 593 -15 854 147 b 422 978 854 826 593 978 z m 422 0 b 256 69 369 0 307 25 l 256 906 b 422 963 304 936 363 963 b 667 482 583 963 667 790 b 422 0 667 179 583 0 z "},"Đ":{"ha":910,"x_min":0,"x_max":0,"o":"m 436 978 b 269 925 385 978 315 953 l 269 944 l 242 972 l 228 972 b 83 944 226 972 157 944 l 83 472 l 10 472 l 0 457 l 83 457 l 83 28 l 111 0 l 125 0 b 269 28 125 1 194 28 l 269 47 b 436 -15 317 10 372 -15 b 868 482 607 -15 868 147 b 436 978 868 826 607 978 z m 436 0 b 269 69 383 0 321 25 l 269 457 l 668 457 l 668 472 b 563 613 624 472 563 561 l 549 613 b 269 472 515 529 443 475 l 269 906 b 436 963 318 936 376 963 b 681 482 597 963 681 790 b 436 0 681 179 597 0 z "},"E":{"ha":831,"x_min":0,"x_max":0,"o":"m 683 156 l 669 156 b 379 15 636 71 561 15 l 171 15 b 268 29 197 22 232 29 l 268 481 l 642 481 l 642 496 b 536 636 597 496 536 585 l 522 636 b 289 496 489 551 418 496 l 268 496 l 268 943 l 256 957 l 761 957 l 761 972 b 656 1113 717 972 656 1061 l 642 1113 b 351 972 608 1028 533 972 l 24 972 l 14 957 l 179 957 b 82 943 153 950 118 943 l 82 29 l 96 15 l 24 15 l 14 0 l 789 0 l 789 15 b 683 156 744 15 683 104 z "},"É":{"ha":831,"x_min":0,"x_max":0,"o":"m 499 1250 l 353 1250 l 324 1221 l 268 1004 l 281 1004 z m 683 156 l 669 156 b 379 15 636 71 561 15 l 171 15 b 268 29 197 22 232 29 l 268 481 l 642 481 l 642 496 b 536 636 597 496 536 585 l 522 636 b 289 496 489 551 418 496 l 268 496 l 268 943 l 256 957 l 761 957 l 761 972 b 656 1113 717 972 656 1061 l 642 1113 b 351 972 608 1028 533 972 l 24 972 l 14 957 l 179 957 b 82 943 153 950 118 943 l 82 29 l 96 15 l 24 15 l 14 0 l 789 0 l 789 15 b 683 156 744 15 683 104 z "},"Ě":{"ha":831,"x_min":0,"x_max":0,"o":"m 343 1004 l 476 1004 l 517 1033 l 671 1250 l 654 1250 l 410 1051 l 165 1250 l 147 1250 l 301 1033 z m 683 156 l 669 156 b 379 15 636 71 561 15 l 171 15 b 268 29 197 22 232 29 l 268 481 l 642 481 l 642 496 b 536 636 597 496 536 585 l 522 636 b 289 496 489 551 418 496 l 268 496 l 268 943 l 256 957 l 761 957 l 761 972 l 351 972 l 24 972 l 14 957 l 179 957 b 82 943 153 950 118 943 l 82 29 l 96 15 l 24 15 l 14 0 l 789 0 l 789 15 b 683 156 744 15 683 104 z "},"Ê":{"ha":831,"x_min":0,"x_max":0,"o":"m 404 1203 l 649 1004 l 665 1004 l 511 1221 l 471 1250 l 338 1250 l 296 1221 l 142 1004 l 160 1004 z m 683 156 l 669 156 b 379 15 636 71 561 15 l 171 15 b 268 29 197 22 232 29 l 268 481 l 642 481 l 642 496 b 536 636 597 496 536 585 l 522 636 b 289 496 489 551 418 496 l 268 496 l 268 943 l 256 957 l 761 957 l 761 972 l 351 972 l 24 972 l 14 957 l 179 957 b 82 943 153 950 118 943 l 82 29 l 96 15 l 24 15 l 14 0 l 789 0 l 789 15 b 683 156 744 15 683 104 z "},"Ë":{"ha":831,"x_min":0,"x_max":0,"o":"m 175 1032 b 319 1060 175 1032 243 1060 l 319 1222 l 292 1250 l 276 1250 b 132 1222 274 1250 207 1222 l 132 1060 l 160 1032 z m 521 1032 b 665 1060 521 1032 589 1060 l 665 1222 l 638 1250 l 622 1250 b 478 1222 619 1250 553 1222 l 478 1060 l 506 1032 z m 683 156 l 669 156 b 379 15 636 71 561 15 l 171 15 b 268 29 197 22 232 29 l 268 481 l 642 481 l 642 496 b 536 636 597 496 536 585 l 522 636 b 289 496 489 551 418 496 l 268 496 l 268 943 l 256 957 l 761 957 l 761 972 l 351 972 l 24 972 l 14 957 l 179 957 b 82 943 153 950 118 943 l 82 29 l 96 15 l 24 15 l 14 0 l 789 0 l 789 15 b 683 156 744 15 683 104 z "},"Ė":{"ha":831,"x_min":0,"x_max":0,"o":"m 333 1032 b 478 1060 333 1032 401 1060 l 478 1222 l 450 1250 l 435 1250 b 290 1222 432 1250 365 1222 l 290 1060 l 318 1032 z m 683 156 l 669 156 b 379 15 636 71 561 15 l 171 15 b 268 29 197 22 232 29 l 268 481 l 642 481 l 642 496 b 536 636 597 496 536 585 l 522 636 b 289 496 489 551 418 496 l 268 496 l 268 943 l 256 957 l 761 957 l 761 972 b 656 1113 717 972 656 1061 l 642 1113 b 351 972 608 1028 533 972 l 24 972 l 14 957 l 179 957 b 82 943 153 950 118 943 l 82 29 l 96 15 l 24 15 l 14 0 l 789 0 l 789 15 b 683 156 744 15 683 104 z "},"È":{"ha":831,"x_min":0,"x_max":0,"o":"m 458 1004 l 403 1221 l 374 1250 l 228 1250 l 446 1004 z m 683 156 l 669 156 b 379 15 636 71 561 15 l 171 15 b 268 29 197 22 232 29 l 268 481 l 642 481 l 642 496 b 536 636 597 496 536 585 l 522 636 b 289 496 489 551 418 496 l 268 496 l 268 943 l 256 957 l 761 957 l 761 972 b 656 1113 717 972 656 1061 l 642 1113 b 351 972 608 1028 533 972 l 24 972 l 14 957 l 179 957 b 82 943 153 950 118 943 l 82 29 l 96 15 l 24 15 l 14 0 l 789 0 l 789 15 b 683 156 744 15 683 104 z "},"Ē":{"ha":831,"x_min":0,"x_max":0,"o":"m 178 1115 b 658 1143 178 1115 397 1143 l 658 1222 l 631 1250 l 615 1250 b 135 1222 613 1250 397 1222 l 135 1143 l 163 1115 z m 683 156 l 669 156 b 379 15 636 71 561 15 l 171 15 b 268 29 197 22 232 29 l 268 481 l 642 481 l 642 496 b 536 636 597 496 536 585 l 522 636 b 289 496 489 551 418 496 l 268 496 l 268 943 l 256 957 l 761 957 l 761 972 l 351 972 l 24 972 l 14 957 l 179 957 b 82 943 153 950 118 943 l 82 29 l 96 15 l 24 15 l 14 0 l 789 0 l 789 15 b 683 156 744 15 683 104 z "},"Ę":{"ha":831,"x_min":0,"x_max":0,"o":"m 789 0 l 789 15 b 683 156 744 15 683 104 l 669 156 b 379 15 636 71 561 15 l 171 15 b 268 29 197 22 232 29 l 268 481 l 642 481 l 642 496 b 536 636 597 496 536 585 l 522 636 b 289 496 489 551 418 496 l 268 496 l 268 943 l 256 957 l 761 957 l 761 972 b 656 1113 717 972 656 1061 l 642 1113 b 351 972 608 1028 533 972 l 24 972 l 14 957 l 179 957 b 82 943 153 950 118 943 l 82 29 l 96 15 l 24 15 l 14 0 l 583 0 l 538 -146 l 546 -151 l 550 -151 l 564 -126 b 603 -326 728 -65 746 -222 l 603 -339 l 656 -354 b 571 -114 878 -207 742 -54 l 638 0 z "},"F":{"ha":803,"x_min":0,"x_max":0,"o":"m 761 972 b 656 1113 717 972 656 1061 l 642 1113 b 351 972 608 1028 533 972 l 24 972 l 14 957 l 179 957 b 82 943 153 950 118 943 l 82 496 l 24 496 l 14 481 l 82 481 l 82 29 l 110 0 l 125 0 b 268 29 125 0 193 29 l 268 481 l 642 481 l 642 496 b 536 636 597 496 536 585 l 522 636 b 289 496 489 551 418 496 l 268 496 l 268 943 l 256 957 l 761 957 z "},"G":{"ha":974,"x_min":0,"x_max":0,"o":"m 500 972 l 546 972 b 810 765 753 972 810 765 l 825 765 b 904 972 825 889 871 950 l 904 988 l 500 988 b 42 486 239 988 42 797 b 500 -15 42 168 311 -15 b 715 29 592 -15 661 3 l 743 0 l 758 0 b 903 28 758 0 826 28 l 903 500 l 875 528 l 860 528 b 715 500 857 528 790 500 l 715 106 b 222 507 524 53 283 199 b 500 972 153 914 383 972 z "},"Ğ":{"ha":974,"x_min":0,"x_max":0,"o":"m 500 1071 b 643 1149 565 1071 614 1107 l 679 1250 l 665 1250 b 500 1158 651 1172 603 1158 b 338 1250 397 1158 351 1172 l 324 1250 l 360 1149 b 500 1071 388 1104 433 1071 z m 500 972 l 546 972 b 810 765 753 972 810 765 l 825 765 b 904 972 825 889 871 950 l 904 988 l 500 988 b 42 486 239 988 42 797 b 500 -15 42 168 311 -15 b 715 29 592 -15 661 3 l 743 0 l 758 0 b 903 28 758 0 826 28 l 903 500 l 875 528 l 860 528 b 715 500 857 528 790 500 l 715 106 b 222 507 524 53 283 199 b 500 972 153 914 383 972 z "},"Ģ":{"ha":974,"x_min":0,"x_max":0,"o":"m 500 972 l 546 972 b 810 765 753 972 810 765 l 825 765 b 904 972 825 889 871 950 l 904 988 l 500 988 b 42 486 239 988 42 797 b 456 -12 42 192 272 14 l 413 -146 l 421 -151 l 425 -151 l 439 -126 b 478 -326 603 -65 621 -222 l 478 -339 l 531 -354 b 446 -114 753 -207 617 -54 l 504 -15 b 715 29 593 -15 663 3 l 743 0 l 758 0 b 903 28 758 0 826 28 l 903 500 l 875 528 l 860 528 b 715 500 857 528 790 500 l 715 106 b 222 507 524 53 283 199 b 500 972 153 914 383 972 z "},"Ġ":{"ha":974,"x_min":0,"x_max":0,"o":"m 449 1032 b 593 1060 449 1032 517 1060 l 593 1222 l 565 1250 l 550 1250 b 406 1222 547 1250 481 1222 l 406 1060 l 433 1032 z m 500 972 l 546 972 b 810 765 753 972 810 765 l 825 765 b 904 972 825 889 871 950 l 904 988 l 500 988 b 42 486 239 988 42 797 b 500 -15 42 168 311 -15 b 715 29 592 -15 661 3 l 743 0 l 758 0 b 903 28 758 0 826 28 l 903 500 l 875 528 l 860 528 b 715 500 857 528 790 500 l 715 106 b 222 507 524 53 283 199 b 500 972 153 914 383 972 z "},"H":{"ha":856,"x_min":0,"x_max":0,"o":"m 758 972 l 743 972 b 599 944 740 972 674 944 l 599 542 l 257 542 l 257 944 l 229 972 l 214 972 b 69 944 211 972 144 944 l 69 28 l 97 0 l 113 0 b 257 28 113 0 181 28 l 257 528 l 599 528 l 599 28 l 626 0 l 642 0 b 786 28 642 0 710 28 l 786 944 z "},"Ħ":{"ha":1118,"x_min":0,"x_max":0,"o":"m 1118 694 b 1013 835 1074 694 1013 783 l 999 835 b 854 711 976 778 935 733 l 854 944 l 826 972 l 811 972 b 667 944 808 972 742 944 l 667 694 l 325 694 l 325 944 l 297 972 l 282 972 b 138 944 279 972 213 944 l 138 694 l 10 694 l 0 679 l 138 679 l 138 28 l 165 0 l 181 0 b 325 28 181 0 249 28 l 325 528 l 667 528 l 667 28 l 694 0 l 710 0 b 854 28 710 0 778 28 l 854 679 l 1118 679 z m 667 542 l 325 542 l 325 679 l 667 679 z "},"I":{"ha":326,"x_min":0,"x_max":0,"o":"m 257 28 l 257 944 l 229 972 l 214 972 b 69 944 211 972 144 944 l 69 28 l 97 0 l 113 0 b 257 28 113 0 181 28 z "},"Í":{"ha":326,"x_min":0,"x_max":0,"o":"m 69 1004 l 82 1004 l 300 1250 l 154 1250 l 125 1221 z m 257 28 l 257 944 l 229 972 l 214 972 b 69 944 211 972 144 944 l 69 28 l 97 0 l 113 0 b 257 28 113 0 181 28 z "},"Î":{"ha":326,"x_min":0,"x_max":0,"o":"m 271 1221 l 231 1250 l 97 1250 l 56 1221 l -99 1004 l -81 1004 l 164 1203 l 408 1004 l 425 1004 z m 214 972 b 69 944 211 972 144 944 l 69 28 l 97 0 l 113 0 b 257 28 113 0 181 28 l 257 944 l 229 972 z "},"Ï":{"ha":326,"x_min":0,"x_max":0,"o":"m 85 1060 l 85 1222 l 57 1250 l 42 1250 b -103 1222 39 1250 -28 1222 l -103 1060 l -75 1032 l -60 1032 b 85 1060 -60 1032 8 1060 z m 431 1060 l 431 1222 l 403 1250 l 388 1250 b 243 1222 385 1250 318 1222 l 243 1060 l 271 1032 l 286 1032 b 431 1060 286 1032 354 1060 z m 257 28 l 257 944 l 229 972 l 214 972 b 69 944 211 972 144 944 l 69 28 l 97 0 l 113 0 b 257 28 113 0 181 28 z "},"İ":{"ha":326,"x_min":0,"x_max":0,"o":"m 257 1060 l 257 1222 l 229 1250 l 214 1250 b 69 1222 211 1250 144 1222 l 69 1060 l 97 1032 l 113 1032 b 257 1060 113 1032 181 1060 z m 257 28 l 257 944 l 229 972 l 214 972 b 69 944 211 972 144 944 l 69 28 l 97 0 l 113 0 b 257 28 113 0 181 28 z "},"Ì":{"ha":326,"x_min":0,"x_max":0,"o":"m 257 1004 l 201 1221 l 172 1250 l 26 1250 l 244 1004 z m 257 28 l 257 944 l 229 972 l 214 972 b 69 944 211 972 144 944 l 69 28 l 97 0 l 113 0 b 257 28 113 0 181 28 z "},"Ī":{"ha":326,"x_min":0,"x_max":0,"o":"m 425 1143 l 425 1222 l 397 1250 l 382 1250 b -99 1222 379 1250 164 1222 l -99 1143 l -71 1115 l -56 1115 b 425 1143 -56 1115 164 1143 z m 257 28 l 257 944 l 229 972 l 214 972 b 69 944 211 972 144 944 l 69 28 l 97 0 l 113 0 b 257 28 113 0 181 28 z "},"Į":{"ha":326,"x_min":0,"x_max":0,"o":"m 63 -114 l 133 7 b 257 28 158 15 206 28 l 257 944 l 229 972 l 214 972 b 69 944 211 972 144 944 l 69 28 l 81 17 l 29 -146 l 38 -151 l 42 -151 l 56 -126 b 94 -326 219 -65 238 -222 l 94 -339 l 147 -354 b 63 -114 369 -207 233 -54 z "},"J":{"ha":354,"x_min":0,"x_max":0,"o":"m 257 972 l 242 972 b 97 944 239 972 172 944 l 97 507 b -28 -135 97 -99 97 -135 l -28 -161 b 285 340 257 -161 285 -68 l 285 944 z "},"K":{"ha":885,"x_min":0,"x_max":0,"o":"m 532 458 b 288 494 483 458 372 464 l 693 972 l 547 972 l 518 943 l 571 851 l 257 482 l 257 943 l 229 972 l 213 972 b 69 943 211 971 146 943 l 69 29 l 99 0 l 113 0 b 257 29 114 1 179 29 l 257 458 l 275 481 l 635 29 b 828 0 749 29 821 3 l 843 0 l 871 29 z "},"Ķ":{"ha":885,"x_min":0,"x_max":0,"o":"m 532 458 b 288 494 483 458 372 464 l 693 972 l 547 972 l 518 943 l 571 851 l 257 482 l 257 943 l 229 972 l 213 972 b 69 943 211 971 146 943 l 69 29 l 99 0 l 113 0 b 257 29 114 1 179 29 l 257 458 l 275 481 l 635 29 b 828 0 749 29 821 3 l 843 0 l 871 29 z m 381 -114 l 442 -8 l 407 10 l 394 4 l 346 -146 l 354 -151 l 358 -151 l 372 -126 b 411 -326 536 -65 554 -222 l 411 -339 l 464 -354 b 381 -114 686 -207 550 -54 z "},"L":{"ha":831,"x_min":0,"x_max":0,"o":"m 683 156 l 669 156 b 379 15 636 71 561 15 l 171 15 b 268 29 197 22 232 29 l 268 943 l 242 972 l 225 972 b 82 943 224 972 157 943 l 82 29 l 96 15 l 24 15 l 14 0 l 789 0 l 789 15 b 683 156 744 15 683 104 z "},"Ĺ":{"ha":831,"x_min":0,"x_max":0,"o":"m 315 1250 l 169 1250 l 140 1221 l 85 1004 l 97 1004 z m 683 156 l 669 156 b 379 15 636 71 561 15 l 171 15 b 268 29 197 22 232 29 l 268 943 l 242 972 l 225 972 b 82 943 224 972 157 943 l 82 29 l 96 15 l 24 15 l 14 0 l 789 0 l 789 15 b 683 156 744 15 683 104 z "},"Ľ":{"ha":831,"x_min":0,"x_max":0,"o":"m 683 156 l 669 156 b 379 15 636 71 561 15 l 171 15 b 268 29 197 22 232 29 l 268 943 l 242 972 l 225 972 b 82 943 224 972 157 943 l 82 29 l 96 15 l 24 15 l 14 0 l 789 0 l 789 15 b 683 156 744 15 683 104 z m 715 972 l 569 972 l 540 943 l 485 726 l 497 726 z "},"Ļ":{"ha":831,"x_min":0,"x_max":0,"o":"m 789 0 l 789 15 b 683 156 744 15 683 104 l 669 156 b 379 15 636 71 561 15 l 171 15 b 268 29 197 22 232 29 l 268 943 l 242 972 l 225 972 b 82 943 224 972 157 943 l 82 29 l 96 15 l 24 15 l 14 0 l 356 0 l 308 -146 l 317 -151 l 321 -151 l 335 -126 b 374 -326 499 -65 517 -222 l 374 -339 l 426 -354 b 342 -114 649 -207 513 -54 l 408 0 z "},"Ł":{"ha":831,"x_min":0,"x_max":0,"o":"m 683 156 l 669 156 b 379 15 636 71 561 15 l 171 15 b 268 29 197 22 232 29 l 268 611 l 328 683 l 321 694 l 268 632 l 268 943 l 242 972 l 225 972 b 82 943 224 972 157 943 l 82 568 l 139 476 l 121 456 l 14 335 l 160 335 l 189 364 l 138 451 l 147 463 l 208 363 l 161 317 l 82 317 l 82 29 l 96 15 l 24 15 l 14 0 l 789 0 l 789 15 b 683 156 744 15 683 104 z "},"M":{"ha":1060,"x_min":0,"x_max":0,"o":"m 963 972 l 947 972 b 803 944 944 972 878 944 l 803 854 l 624 181 l 624 944 l 596 972 l 581 972 b 436 944 578 972 511 944 l 436 176 l 257 853 l 257 944 l 229 972 l 214 972 b 69 944 211 972 144 944 l 69 28 l 97 0 l 113 0 b 257 28 113 0 181 28 l 257 796 l 436 119 l 436 28 l 464 0 l 479 0 b 624 28 479 0 547 28 l 624 118 l 803 796 l 803 28 l 831 0 l 846 0 b 990 28 846 0 914 28 l 990 944 z "},"N":{"ha":896,"x_min":0,"x_max":0,"o":"m 799 972 l 783 972 b 639 944 781 972 714 944 l 639 104 l 257 900 l 257 944 l 229 972 l 214 972 b 69 944 211 972 144 944 l 69 28 l 97 0 l 113 0 b 257 28 113 0 181 28 l 257 868 l 639 72 l 639 28 l 667 0 l 682 0 b 826 28 682 0 750 28 l 826 944 z "},"Ń":{"ha":896,"x_min":0,"x_max":0,"o":"m 608 1250 l 463 1250 l 433 1221 l 378 1004 l 390 1004 z m 799 972 l 783 972 b 639 944 781 972 714 944 l 639 104 l 257 900 l 257 944 l 229 972 l 214 972 b 69 944 211 972 144 944 l 69 28 l 97 0 l 113 0 b 257 28 113 0 181 28 l 257 868 l 639 72 l 639 28 l 667 0 l 682 0 b 826 28 682 0 750 28 l 826 944 z "},"Ň":{"ha":896,"x_min":0,"x_max":0,"o":"m 379 1004 l 513 1004 l 553 1033 l 707 1250 l 690 1250 l 446 1051 l 201 1250 l 183 1250 l 338 1033 z m 799 972 l 783 972 b 639 944 781 972 714 944 l 639 104 l 257 900 l 257 944 l 229 972 l 214 972 b 69 944 211 972 144 944 l 69 28 l 97 0 l 113 0 b 257 28 113 0 181 28 l 257 868 l 639 72 l 639 28 l 667 0 l 682 0 b 826 28 682 0 750 28 l 826 944 z "},"Ņ":{"ha":896,"x_min":0,"x_max":0,"o":"m 799 972 l 783 972 b 639 944 781 972 714 944 l 639 104 l 257 900 l 257 944 l 229 972 l 214 972 b 69 944 211 972 144 944 l 69 28 l 97 0 l 113 0 b 257 28 113 0 181 28 l 257 868 l 639 72 l 639 28 l 667 0 l 682 0 b 826 28 682 0 750 28 l 826 944 z m 367 -114 l 428 -8 l 393 10 l 381 4 l 332 -146 l 340 -151 l 344 -151 l 358 -126 b 397 -326 522 -65 540 -222 l 397 -339 l 450 -354 b 367 -114 672 -207 536 -54 z "},"Ŋ":{"ha":896,"x_min":0,"x_max":0,"o":"m 799 972 l 783 972 b 639 944 781 972 714 944 l 639 104 l 257 900 l 257 944 l 229 972 l 214 972 b 69 944 211 972 144 944 l 69 28 l 97 0 l 113 0 b 257 28 113 0 181 28 l 257 868 l 639 72 l 639 0 b 561 -261 639 -111 626 -261 l 561 -292 l 621 -307 b 826 0 765 -307 826 -146 l 826 944 z "},"Ñ":{"ha":896,"x_min":0,"x_max":0,"o":"m 386 1121 b 651 1103 472 1065 513 1007 l 644 1121 b 379 1240 539 1064 457 1199 l 367 1240 l 240 1135 l 251 1125 b 386 1121 292 1169 331 1157 z m 799 972 l 783 972 b 639 944 781 972 714 944 l 639 104 l 257 900 l 257 944 l 229 972 l 214 972 b 69 944 211 972 144 944 l 69 28 l 97 0 l 113 0 b 257 28 113 0 181 28 l 257 868 l 639 72 l 639 28 l 667 0 l 682 0 b 826 28 682 0 750 28 l 826 944 z "},"O":{"ha":1000,"x_min":0,"x_max":0,"o":"m 500 -15 b 42 486 242 -15 42 168 b 500 988 42 797 239 988 b 958 486 757 988 958 801 b 500 -15 958 171 763 -15 z m 500 972 b 232 486 383 972 232 893 b 500 0 232 78 383 0 b 768 486 618 0 768 78 b 500 972 768 893 618 972 z "},"Ó":{"ha":1000,"x_min":0,"x_max":0,"o":"m 485 1004 l 497 1004 l 715 1250 l 569 1250 l 540 1221 z m 500 -15 b 42 486 242 -15 42 168 b 500 988 42 797 239 988 b 958 486 757 988 958 801 b 500 -15 958 171 763 -15 z m 500 972 b 232 486 383 972 232 893 b 500 0 232 78 383 0 b 768 486 618 0 768 78 b 500 972 768 893 618 972 z "},"Ô":{"ha":1000,"x_min":0,"x_max":0,"o":"m 501 1203 l 746 1004 l 763 1004 l 608 1221 l 568 1250 l 435 1250 l 393 1221 l 239 1004 l 257 1004 z m 500 988 b 42 486 239 988 42 797 b 500 -15 42 168 242 -15 b 958 486 763 -15 958 171 b 500 988 958 801 757 988 z m 500 0 b 232 486 383 0 232 78 b 500 972 232 893 383 972 b 768 486 618 972 768 893 b 500 0 768 78 618 0 z "},"Ö":{"ha":1000,"x_min":0,"x_max":0,"o":"m 421 1060 l 421 1222 l 393 1250 l 378 1250 b 233 1222 375 1250 308 1222 l 233 1060 l 261 1032 l 276 1032 b 421 1060 276 1032 344 1060 z m 767 1060 l 767 1222 l 739 1250 l 724 1250 b 579 1222 721 1250 654 1222 l 579 1060 l 607 1032 l 622 1032 b 767 1060 622 1032 690 1060 z m 500 -15 b 42 486 242 -15 42 168 b 500 988 42 797 239 988 b 958 486 757 988 958 801 b 500 -15 958 171 763 -15 z m 500 972 b 232 486 383 972 232 893 b 500 0 232 78 383 0 b 768 486 618 0 768 78 b 500 972 768 893 618 972 z "},"Ò":{"ha":1000,"x_min":0,"x_max":0,"o":"m 533 1004 l 478 1221 l 449 1250 l 303 1250 l 521 1004 z m 500 -15 b 42 486 242 -15 42 168 b 500 988 42 797 239 988 b 958 486 757 988 958 801 b 500 -15 958 171 763 -15 z m 500 972 b 232 486 383 972 232 893 b 500 0 232 78 383 0 b 768 486 618 0 768 78 b 500 972 768 893 618 972 z "},"Ő":{"ha":1000,"x_min":0,"x_max":0,"o":"m 340 1004 l 353 1004 l 571 1250 l 425 1250 l 396 1221 z m 533 1004 l 546 1004 l 764 1250 l 618 1250 l 589 1221 z m 500 -15 b 42 486 242 -15 42 168 b 500 988 42 797 239 988 b 958 486 757 988 958 801 b 500 -15 958 171 763 -15 z m 500 972 b 232 486 383 972 232 893 b 500 0 232 78 383 0 b 768 486 618 0 768 78 b 500 972 768 893 618 972 z "},"Ō":{"ha":1000,"x_min":0,"x_max":0,"o":"m 764 1143 l 764 1222 l 736 1250 l 721 1250 b 240 1222 718 1250 503 1222 l 240 1143 l 268 1115 l 283 1115 b 764 1143 283 1115 503 1143 z m 500 -15 b 42 486 242 -15 42 168 b 500 988 42 797 239 988 b 958 486 757 988 958 801 b 500 -15 958 171 763 -15 z m 500 972 b 232 486 383 972 232 893 b 500 0 232 78 383 0 b 768 486 618 0 768 78 b 500 972 768 893 618 972 z "},"Ø":{"ha":1000,"x_min":0,"x_max":0,"o":"m 804 875 l 863 960 l 842 972 l 788 890 b 500 988 708 954 610 988 b 42 486 239 988 42 797 b 233 65 42 292 117 147 l 190 0 l 83 -121 l 229 -121 l 258 -92 l 206 0 l 244 57 b 500 -15 317 10 404 -15 b 958 486 763 -15 958 171 b 804 875 958 657 900 789 z m 232 486 b 500 972 232 893 383 972 b 724 796 578 972 671 938 l 289 147 b 232 486 254 221 232 329 z m 500 0 b 296 132 432 0 351 26 l 733 769 b 768 486 754 700 768 608 b 500 0 768 78 618 0 z "},"Õ":{"ha":1000,"x_min":0,"x_max":0,"o":"m 294 1135 l 421 1240 l 433 1240 b 699 1121 511 1199 593 1064 l 706 1103 b 440 1121 567 1007 526 1065 b 306 1125 385 1157 346 1169 z m 500 -15 b 42 486 242 -15 42 168 b 500 988 42 797 239 988 b 958 486 757 988 958 801 b 500 -15 958 171 763 -15 z m 500 972 b 232 486 383 972 232 893 b 500 0 232 78 383 0 b 768 486 618 0 768 78 b 500 972 768 893 618 972 z "},"Œ":{"ha":1369,"x_min":0,"x_max":0,"o":"m 1222 156 l 1208 156 b 918 15 1175 71 1100 15 l 710 15 b 807 29 736 22 771 29 l 807 481 l 1181 481 l 1181 496 b 1075 636 1136 496 1075 585 l 1061 636 b 828 496 1028 551 957 496 l 807 496 l 807 943 l 794 957 l 1300 957 l 1300 972 b 1194 1113 1256 972 1194 1061 l 1181 1113 b 890 972 1147 1028 1072 972 l 500 972 b 42 486 239 972 42 797 b 500 0 42 168 242 0 l 1328 0 l 1328 15 b 1222 156 1283 15 1222 104 z m 500 15 b 232 486 383 15 232 78 b 500 957 232 893 383 957 l 718 957 b 621 943 692 950 657 943 l 621 29 l 635 15 z "},"P":{"ha":739,"x_min":0,"x_max":0,"o":"m 382 976 b 257 938 338 976 289 954 l 257 944 l 229 972 l 214 972 b 69 944 211 972 144 944 l 69 28 l 97 0 l 113 0 b 257 28 113 0 181 28 l 257 501 l 371 501 b 697 732 564 501 697 597 b 382 976 697 917 564 976 z m 382 515 l 257 515 l 257 921 b 382 961 288 938 336 961 b 510 732 496 961 510 838 b 382 515 510 628 510 515 z "},"Þ":{"ha":739,"x_min":0,"x_max":0,"o":"m 382 710 b 257 671 338 710 289 688 l 257 944 l 229 972 l 214 972 b 69 944 211 972 144 944 l 69 28 l 97 0 l 113 0 b 257 28 113 0 181 28 l 257 290 l 371 290 b 697 493 564 290 697 358 b 382 710 697 678 564 710 z m 382 304 l 257 304 l 257 654 b 382 694 288 671 336 694 b 510 493 496 694 510 599 b 382 304 510 389 510 304 z "},"Q":{"ha":1000,"x_min":0,"x_max":0,"o":"m 500 -15 b 958 486 763 -15 958 171 b 500 988 958 801 757 988 b 42 486 239 988 42 797 b 318 19 42 249 153 86 l 149 -168 l 160 -179 b 479 -156 254 -83 369 -119 b 774 -142 597 -194 697 -218 b 801 -11 758 -71 801 -11 l 790 0 b 211 -119 664 -196 419 1 l 340 11 b 500 -15 389 -7 443 -15 z m 500 972 b 768 486 618 972 768 893 b 500 0 768 78 618 0 b 232 486 383 0 232 78 b 500 972 232 893 383 972 z "},"R":{"ha":899,"x_min":0,"x_max":0,"o":"m 507 519 b 257 557 457 519 343 525 l 371 557 b 697 760 564 557 697 625 b 382 976 697 944 564 976 b 257 938 338 976 289 954 l 257 944 l 229 972 l 214 972 b 69 944 211 972 144 944 l 69 28 l 97 0 l 113 0 b 257 28 113 0 181 28 l 257 533 l 649 29 b 842 0 763 29 835 3 l 857 0 l 885 29 z m 382 961 b 510 760 496 961 510 865 b 382 571 510 656 510 571 l 257 571 l 257 921 b 382 961 288 938 336 961 z "},"Ŕ":{"ha":899,"x_min":0,"x_max":0,"o":"m 592 1250 l 446 1250 l 417 1221 l 361 1004 l 374 1004 z m 507 519 b 257 557 457 519 343 525 l 371 557 b 697 760 564 557 697 625 b 382 976 697 944 564 976 b 257 938 338 976 289 954 l 257 944 l 229 972 l 214 972 b 69 944 211 972 144 944 l 69 28 l 97 0 l 113 0 b 257 28 113 0 181 28 l 257 533 l 649 29 b 842 0 763 29 835 3 l 857 0 l 885 29 z m 382 961 b 510 760 496 961 510 865 b 382 571 510 656 510 571 l 257 571 l 257 921 b 382 961 288 938 336 961 z "},"Ř":{"ha":899,"x_min":0,"x_max":0,"o":"m 317 1004 l 450 1004 l 490 1033 l 644 1250 l 628 1250 l 383 1051 l 139 1250 l 121 1250 l 275 1033 z m 507 519 b 257 557 457 519 343 525 l 371 557 b 697 760 564 557 697 625 b 382 976 697 944 564 976 b 257 938 338 976 289 954 l 257 944 l 229 972 l 214 972 b 69 944 211 972 144 944 l 69 28 l 97 0 l 113 0 b 257 28 113 0 181 28 l 257 533 l 649 29 b 842 0 763 29 835 3 l 857 0 l 885 29 z m 382 961 b 510 760 496 961 510 865 b 382 571 510 656 510 571 l 257 571 l 257 921 b 382 961 288 938 336 961 z "},"Ŗ":{"ha":899,"x_min":0,"x_max":0,"o":"m 507 519 b 257 557 457 519 343 525 l 371 557 b 697 760 564 557 697 625 b 382 976 697 944 564 976 b 257 938 338 976 289 954 l 257 944 l 229 972 l 214 972 b 69 944 211 972 144 944 l 69 28 l 97 0 l 113 0 b 257 28 113 0 181 28 l 257 533 l 649 29 b 842 0 763 29 835 3 l 857 0 l 885 29 z m 382 961 b 510 760 496 961 510 865 b 382 571 510 656 510 571 l 257 571 l 257 921 b 382 961 288 938 336 961 z m 383 -114 l 444 -8 l 410 10 l 397 4 l 349 -146 l 357 -151 l 361 -151 l 375 -126 b 414 -326 539 -65 557 -222 l 414 -339 l 467 -354 b 383 -114 689 -207 553 -54 z "},"S":{"ha":722,"x_min":0,"x_max":0,"o":"m 706 324 b 432 582 690 451 617 533 b 107 747 261 626 131 679 b 299 949 47 906 210 957 b 656 671 521 933 656 671 l 663 674 b 581 972 663 674 578 838 b 333 972 581 972 507 954 b 35 667 179 988 -18 856 b 317 425 68 549 143 485 b 632 226 564 335 617 308 b 408 32 651 85 538 17 b 22 339 258 44 88 188 l 14 335 b 86 0 85 135 86 0 b 386 0 96 8 176 24 b 706 324 574 -21 732 161 z "},"Ś":{"ha":722,"x_min":0,"x_max":0,"o":"m 326 1004 l 339 1004 l 557 1250 l 411 1250 l 382 1221 z m 706 324 b 432 582 690 451 617 533 b 107 747 261 626 131 679 b 299 949 47 906 210 957 b 656 671 521 933 656 671 l 663 674 b 581 972 663 674 578 838 b 333 972 581 972 507 954 b 35 667 179 988 -18 856 b 317 425 68 549 143 485 b 632 226 564 335 617 308 b 408 32 651 85 538 17 b 22 339 258 44 88 188 l 14 335 b 86 0 85 135 86 0 b 386 0 96 8 176 24 b 706 324 574 -21 732 161 z "},"Š":{"ha":722,"x_min":0,"x_max":0,"o":"m 268 1004 l 401 1004 l 442 1033 l 596 1250 l 579 1250 l 335 1051 l 90 1250 l 72 1250 l 226 1033 z m 706 324 b 432 582 690 451 617 533 b 107 747 261 626 131 679 b 299 949 47 906 210 957 b 656 671 521 933 656 671 l 663 674 b 581 972 663 674 578 838 b 333 972 581 972 507 954 b 35 667 179 988 -18 856 b 317 425 68 549 143 485 b 632 226 564 335 617 308 b 408 32 651 85 538 17 b 22 339 258 44 88 188 l 14 335 b 86 0 85 135 86 0 b 386 0 96 8 176 24 b 706 324 574 -21 732 161 z "},"Ş":{"ha":722,"x_min":0,"x_max":0,"o":"m 386 0 b 706 324 574 -21 732 161 b 432 582 690 451 617 533 b 107 747 261 626 131 679 b 299 949 47 906 210 957 b 656 671 521 933 656 671 l 663 674 b 581 972 663 674 578 838 b 333 972 581 972 507 954 b 35 667 179 988 -18 856 b 317 425 68 549 143 485 b 632 226 564 335 617 308 b 408 32 651 85 538 17 b 22 339 258 44 88 188 l 14 335 b 86 0 85 135 86 0 b 315 7 94 7 158 19 l 267 -146 l 275 -151 l 279 -151 l 293 -126 b 332 -326 457 -65 475 -222 l 332 -339 l 385 -354 b 300 -114 607 -207 471 -54 l 368 1 b 386 0 374 1 381 0 z "},"Ș":{"ha":722,"x_min":0,"x_max":0,"o":"m 386 0 b 706 324 574 -21 732 161 b 432 582 690 451 617 533 b 107 747 261 626 131 679 b 299 949 47 906 210 957 b 656 671 521 933 656 671 l 663 674 b 581 972 663 674 578 838 b 333 972 581 972 507 954 b 35 667 179 988 -18 856 b 317 425 68 549 143 485 b 632 226 564 335 617 308 b 408 32 651 85 538 17 b 22 339 258 44 88 188 l 14 335 b 86 0 85 135 86 0 b 315 7 94 7 158 19 l 267 -146 l 275 -151 l 279 -151 l 293 -126 b 332 -326 457 -65 475 -222 l 332 -339 l 385 -354 b 300 -114 607 -207 471 -54 l 368 1 b 386 0 374 1 381 0 z "},"ẞ":{"ha":1521,"x_min":0,"x_max":0,"o":"m 14 335 b 86 0 85 135 86 0 b 386 0 96 8 176 24 b 706 324 574 -21 732 161 b 432 582 690 451 617 533 b 107 747 261 626 131 679 b 299 949 47 906 210 957 b 643 671 521 933 611 731 l 813 335 b 885 0 893 139 885 0 b 1185 0 894 8 975 24 b 1504 324 1372 -21 1531 161 b 1231 582 1489 451 1415 533 b 906 747 1060 626 929 679 b 1097 949 846 906 1008 957 b 1454 671 1319 933 1454 671 l 1461 674 b 1379 972 1461 674 1376 838 b 1132 972 1379 972 1306 954 b 833 667 978 988 781 856 b 1115 425 867 549 942 485 b 1431 226 1363 335 1415 308 b 1207 32 1450 85 1336 17 b 826 335 1057 44 924 144 l 657 671 b 581 972 657 671 578 838 b 333 972 581 972 507 954 b 35 667 179 988 -18 856 b 317 425 68 549 143 485 b 632 226 564 335 617 308 b 408 32 651 85 538 17 b 22 339 258 44 88 188 z "},"T":{"ha":974,"x_min":0,"x_max":0,"o":"m 960 972 b 854 1113 915 972 854 1061 l 840 1113 b 550 972 807 1028 732 972 l 24 972 l 14 957 l 471 957 b 374 943 444 950 410 943 l 374 29 l 401 0 l 417 0 b 560 29 417 0 485 29 l 560 943 l 547 957 l 960 957 z "},"Ŧ":{"ha":974,"x_min":0,"x_max":0,"o":"m 960 972 b 854 1113 915 972 854 1061 l 840 1113 b 550 972 807 1028 732 972 l 24 972 l 14 957 l 471 957 b 374 943 444 950 410 943 l 374 554 l 163 554 l 153 539 l 374 539 l 374 29 l 401 0 l 417 0 b 560 29 417 0 485 29 l 560 539 l 821 539 l 821 554 b 715 694 776 554 715 643 l 701 694 b 560 572 679 638 639 594 l 560 943 l 547 957 l 960 957 z "},"Ť":{"ha":974,"x_min":0,"x_max":0,"o":"m 401 1004 l 535 1004 l 575 1033 l 729 1250 l 713 1250 l 468 1051 l 224 1250 l 206 1250 l 360 1033 z m 960 972 b 854 1113 915 972 854 1061 l 840 1113 b 550 972 807 1028 732 972 l 24 972 l 14 957 l 471 957 b 374 943 444 950 410 943 l 374 29 l 401 0 l 417 0 b 560 29 417 0 485 29 l 560 943 l 547 957 l 960 957 z "},"Ţ":{"ha":974,"x_min":0,"x_max":0,"o":"m 960 972 b 854 1113 915 972 854 1061 l 840 1113 b 550 972 807 1028 732 972 l 24 972 l 14 957 l 471 957 b 374 943 444 950 410 943 l 374 29 l 385 18 l 332 -146 l 340 -151 l 344 -151 l 358 -126 b 397 -326 522 -65 540 -222 l 397 -339 l 450 -354 b 365 -114 672 -207 536 -54 l 436 7 b 560 29 461 15 510 29 l 560 943 l 547 957 l 960 957 z "},"Ț":{"ha":974,"x_min":0,"x_max":0,"o":"m 960 972 b 854 1113 915 972 854 1061 l 840 1113 b 550 972 807 1028 732 972 l 24 972 l 14 957 l 471 957 b 374 943 444 950 410 943 l 374 29 l 388 15 l 336 -146 l 344 -151 l 349 -151 l 363 -126 b 401 -326 526 -65 544 -222 l 401 -339 l 454 -354 b 371 -114 676 -207 540 -54 l 442 10 b 560 29 468 18 513 29 l 560 943 l 547 957 l 960 957 z "},"U":{"ha":878,"x_min":0,"x_max":0,"o":"m 781 972 l 765 972 b 621 944 763 972 696 944 l 621 389 b 439 -3 621 60 535 -3 b 257 389 344 -3 257 60 l 257 944 l 229 972 l 214 972 b 69 944 211 972 144 944 l 69 389 b 439 -15 69 133 231 -15 b 808 389 651 -15 808 135 l 808 944 z "},"Ú":{"ha":878,"x_min":0,"x_max":0,"o":"m 610 1250 l 464 1250 l 435 1221 l 379 1004 l 392 1004 z m 781 972 l 765 972 b 621 944 763 972 696 944 l 621 389 b 439 -3 621 60 535 -3 b 257 389 344 -3 257 60 l 257 944 l 229 972 l 214 972 b 69 944 211 972 144 944 l 69 389 b 439 -15 69 133 231 -15 b 808 389 651 -15 808 135 l 808 944 z "},"Û":{"ha":878,"x_min":0,"x_max":0,"o":"m 432 1203 l 676 1004 l 693 1004 l 539 1221 l 499 1250 l 365 1250 l 324 1221 l 169 1004 l 188 1004 z m 781 972 l 765 972 b 621 944 763 972 696 944 l 621 389 b 439 -3 621 60 535 -3 b 257 389 344 -3 257 60 l 257 944 l 229 972 l 214 972 b 69 944 211 972 144 944 l 69 389 b 439 -15 69 133 231 -15 b 808 389 651 -15 808 135 l 808 944 z "},"Ü":{"ha":878,"x_min":0,"x_max":0,"o":"m 229 1032 b 374 1060 229 1032 297 1060 l 374 1222 l 346 1250 l 331 1250 b 186 1222 328 1250 261 1222 l 186 1060 l 214 1032 z m 575 1032 b 719 1060 575 1032 643 1060 l 719 1222 l 692 1250 l 676 1250 b 532 1222 674 1250 607 1222 l 532 1060 l 560 1032 z m 781 972 l 765 972 b 621 944 763 972 696 944 l 621 389 b 439 -3 621 60 535 -3 b 257 389 344 -3 257 60 l 257 944 l 229 972 l 214 972 b 69 944 211 972 144 944 l 69 389 b 439 -15 69 133 231 -15 b 808 389 651 -15 808 135 l 808 944 z "},"Ù":{"ha":878,"x_min":0,"x_max":0,"o":"m 492 1004 l 436 1221 l 407 1250 l 261 1250 l 479 1004 z m 781 972 l 765 972 b 621 944 763 972 696 944 l 621 389 b 439 -3 621 60 535 -3 b 257 389 344 -3 257 60 l 257 944 l 229 972 l 214 972 b 69 944 211 972 144 944 l 69 389 b 439 -15 69 133 231 -15 b 808 389 651 -15 808 135 l 808 944 z "},"Ű":{"ha":878,"x_min":0,"x_max":0,"o":"m 521 1250 l 375 1250 l 346 1221 l 290 1004 l 303 1004 z m 496 1004 l 714 1250 l 568 1250 l 539 1221 l 483 1004 z m 781 972 l 765 972 b 621 944 763 972 696 944 l 621 389 b 439 -3 621 60 535 -3 b 257 389 344 -3 257 60 l 257 944 l 229 972 l 214 972 b 69 944 211 972 144 944 l 69 389 b 439 -15 69 133 231 -15 b 808 389 651 -15 808 135 l 808 944 z "},"Ū":{"ha":878,"x_min":0,"x_max":0,"o":"m 231 1115 b 711 1143 231 1115 450 1143 l 711 1222 l 683 1250 l 668 1250 b 188 1222 665 1250 450 1222 l 188 1143 l 215 1115 z m 781 972 l 765 972 b 621 944 763 972 696 944 l 621 389 b 439 -3 621 60 535 -3 b 257 389 344 -3 257 60 l 257 944 l 229 972 l 214 972 b 69 944 211 972 144 944 l 69 389 b 439 -15 69 133 231 -15 b 808 389 651 -15 808 135 l 808 944 z "},"Ų":{"ha":878,"x_min":0,"x_max":0,"o":"m 781 972 l 765 972 b 621 944 763 972 696 944 l 621 389 b 439 -3 621 60 535 -3 b 257 389 344 -3 257 60 l 257 944 l 229 972 l 214 972 b 69 944 211 972 144 944 l 69 389 b 417 -15 69 143 219 -4 l 374 -146 l 382 -151 l 386 -151 l 400 -126 b 439 -326 564 -65 582 -222 l 439 -339 l 492 -354 b 408 -114 714 -207 578 -54 l 465 -14 b 808 389 664 -3 808 146 l 808 944 z "},"Ů":{"ha":878,"x_min":0,"x_max":0,"o":"m 435 1050 b 535 1150 490 1050 535 1094 b 435 1250 535 1206 490 1250 b 335 1150 379 1250 335 1206 b 435 1050 335 1094 379 1050 z m 435 1217 b 501 1150 472 1217 501 1186 b 435 1083 501 1113 472 1083 b 368 1150 397 1083 368 1113 b 435 1217 368 1186 397 1217 z m 781 972 l 765 972 b 621 944 763 972 696 944 l 621 389 b 439 -3 621 60 535 -3 b 257 389 344 -3 257 60 l 257 944 l 229 972 l 214 972 b 69 944 211 972 144 944 l 69 389 b 439 -15 69 133 231 -15 b 808 389 651 -15 808 135 l 808 944 z "},"V":{"ha":1046,"x_min":0,"x_max":0,"o":"m 1025 972 l 879 972 l 850 943 l 903 851 l 631 236 l 371 972 l 21 972 l 21 957 b 226 810 115 957 189 897 l 507 29 l 533 0 l 551 0 b 704 29 551 0 614 28 l 639 214 l 918 851 z "},"W":{"ha":1524,"x_min":0,"x_max":0,"o":"m 1510 972 l 1364 972 l 1335 943 l 1388 851 l 1115 236 l 904 835 l 911 851 l 1018 972 l 872 972 l 843 943 l 896 851 l 624 236 l 364 972 l 14 972 l 14 957 b 219 810 108 957 182 897 l 500 29 l 526 0 l 544 0 b 697 29 544 0 607 28 l 632 214 l 793 582 l 992 29 l 1018 0 l 1036 0 b 1189 29 1036 0 1099 28 l 1124 214 l 1403 851 z "},"Ẃ":{"ha":1524,"x_min":0,"x_max":0,"o":"m 1093 1250 l 947 1250 l 918 1221 l 863 1004 l 875 1004 z m 1510 972 l 1364 972 l 1335 943 l 1388 851 l 1115 236 l 904 835 l 911 851 l 1018 972 l 872 972 l 843 943 l 896 851 l 624 236 l 364 972 l 14 972 l 14 957 b 219 810 108 957 182 897 l 500 29 l 526 0 l 544 0 b 697 29 544 0 607 28 l 632 214 l 793 582 l 992 29 l 1018 0 l 1036 0 b 1189 29 1036 0 1099 28 l 1124 214 l 1403 851 z "},"Ŵ":{"ha":1524,"x_min":0,"x_max":0,"o":"m 763 1203 l 1007 1004 l 1024 1004 l 869 1221 l 829 1250 l 696 1250 l 654 1221 l 500 1004 l 518 1004 z m 1510 972 l 1364 972 l 1335 943 l 1388 851 l 1115 236 l 904 835 l 911 851 l 1018 972 l 872 972 l 843 943 l 896 851 l 624 236 l 364 972 l 14 972 l 14 957 b 219 810 108 957 182 897 l 500 29 l 526 0 l 544 0 b 697 29 544 0 607 28 l 632 214 l 793 582 l 992 29 l 1018 0 l 1036 0 b 1189 29 1036 0 1099 28 l 1124 214 l 1403 851 z "},"Ẅ":{"ha":1524,"x_min":0,"x_max":0,"o":"m 717 1032 b 861 1060 717 1032 785 1060 l 861 1222 l 833 1250 l 818 1250 b 674 1222 815 1250 749 1222 l 674 1060 l 701 1032 z m 1063 1032 b 1207 1060 1063 1032 1131 1060 l 1207 1222 l 1179 1250 l 1164 1250 b 1019 1222 1161 1250 1094 1222 l 1019 1060 l 1047 1032 z m 1510 972 l 1364 972 l 1335 943 l 1388 851 l 1115 236 l 904 835 l 911 851 l 1018 972 l 872 972 l 843 943 l 896 851 l 624 236 l 364 972 l 14 972 l 14 957 b 219 810 108 957 182 897 l 500 29 l 526 0 l 544 0 b 697 29 544 0 607 28 l 632 214 l 793 582 l 992 29 l 1018 0 l 1036 0 b 1189 29 1036 0 1099 28 l 1124 214 l 1403 851 z "},"Ẁ":{"ha":1524,"x_min":0,"x_max":0,"o":"m 1015 1004 l 960 1221 l 931 1250 l 785 1250 l 1003 1004 z m 1510 972 l 1364 972 l 1335 943 l 1388 851 l 1115 236 l 904 835 l 911 851 l 1018 972 l 872 972 l 843 943 l 896 851 l 624 236 l 364 972 l 14 972 l 14 957 b 219 810 108 957 182 897 l 500 29 l 526 0 l 544 0 b 697 29 544 0 607 28 l 632 214 l 793 582 l 992 29 l 1018 0 l 1036 0 b 1189 29 1036 0 1099 28 l 1124 214 l 1403 851 z "},"X":{"ha":967,"x_min":0,"x_max":0,"o":"m 599 575 l 783 851 l 890 972 l 744 972 l 715 943 l 768 851 l 590 589 l 346 972 l 21 972 l 21 957 b 226 810 115 957 168 901 l 449 461 l 222 122 l 115 1 l 261 1 l 290 31 l 238 122 l 457 447 l 724 29 l 750 0 l 768 0 b 946 29 768 0 846 28 z "},"Y":{"ha":939,"x_min":0,"x_max":0,"o":"m 918 972 l 772 972 l 743 943 l 796 851 l 622 458 l 357 972 l 21 972 l 21 957 b 226 810 115 957 169 910 l 435 458 l 435 28 l 463 0 l 478 0 b 622 28 478 0 546 28 l 622 421 l 811 851 z "},"Ý":{"ha":939,"x_min":0,"x_max":0,"o":"m 669 1250 l 524 1250 l 494 1221 l 439 1004 l 451 1004 z m 918 972 l 772 972 l 743 943 l 796 851 l 622 458 l 357 972 l 21 972 l 21 957 b 226 810 115 957 169 910 l 435 458 l 435 28 l 463 0 l 478 0 b 622 28 478 0 546 28 l 622 421 l 811 851 z "},"Ŷ":{"ha":939,"x_min":0,"x_max":0,"o":"m 543 1203 l 788 1004 l 804 1004 l 650 1221 l 610 1250 l 476 1250 l 435 1221 l 281 1004 l 299 1004 z m 918 972 l 772 972 l 743 943 l 796 851 l 622 458 l 357 972 l 21 972 l 21 957 b 226 810 115 957 169 910 l 435 458 l 435 28 l 463 0 l 478 0 b 622 28 478 0 546 28 l 622 421 l 811 851 z "},"Ÿ":{"ha":939,"x_min":0,"x_max":0,"o":"m 290 1032 b 435 1060 290 1032 358 1060 l 435 1222 l 407 1250 l 392 1250 b 247 1222 389 1250 322 1222 l 247 1060 l 275 1032 z m 636 1032 b 781 1060 636 1032 704 1060 l 781 1222 l 753 1250 l 738 1250 b 593 1222 735 1250 668 1222 l 593 1060 l 621 1032 z m 918 972 l 772 972 l 743 943 l 796 851 l 622 458 l 357 972 l 21 972 l 21 957 b 226 810 115 957 169 910 l 435 458 l 435 28 l 463 0 l 478 0 b 622 28 478 0 546 28 l 622 421 l 811 851 z "},"Ỳ":{"ha":939,"x_min":0,"x_max":0,"o":"m 586 1004 l 531 1221 l 501 1250 l 356 1250 l 574 1004 z m 918 972 l 772 972 l 743 943 l 796 851 l 622 458 l 357 972 l 21 972 l 21 957 b 226 810 115 957 169 910 l 435 458 l 435 28 l 463 0 l 478 0 b 622 28 478 0 546 28 l 622 421 l 811 851 z "},"Z":{"ha":957,"x_min":0,"x_max":0,"o":"m 860 785 l 888 813 l 888 828 b 860 972 888 831 860 897 l 97 972 l 69 944 l 69 929 b 97 785 69 929 97 861 l 799 785 l 142 188 l 97 188 l 69 160 l 69 144 b 97 0 69 144 97 76 l 860 0 l 888 28 l 888 43 b 860 188 888 46 860 113 l 161 188 l 818 785 z "},"Ź":{"ha":957,"x_min":0,"x_max":0,"o":"m 592 1250 l 446 1250 l 417 1221 l 361 1004 l 374 1004 z m 860 785 l 888 813 l 888 828 b 860 972 888 831 860 897 l 97 972 l 69 944 l 69 929 b 97 785 69 929 97 861 l 799 785 l 142 188 l 97 188 l 69 160 l 69 144 b 97 0 69 144 97 76 l 860 0 l 888 28 l 888 43 b 860 188 888 46 860 113 l 161 188 l 818 785 z "},"Ž":{"ha":957,"x_min":0,"x_max":0,"o":"m 401 1004 l 535 1004 l 575 1033 l 729 1250 l 713 1250 l 468 1051 l 224 1250 l 206 1250 l 360 1033 z m 860 785 l 888 813 l 888 828 b 860 972 888 831 860 897 l 97 972 l 69 944 l 69 929 b 97 785 69 929 97 861 l 799 785 l 142 188 l 97 188 l 69 160 l 69 144 b 97 0 69 144 97 76 l 860 0 l 888 28 l 888 43 b 860 188 888 46 860 113 l 161 188 l 818 785 z "},"Ż":{"ha":957,"x_min":0,"x_max":0,"o":"m 414 1032 b 558 1060 414 1032 482 1060 l 558 1222 l 531 1250 l 515 1250 b 371 1222 513 1250 446 1222 l 371 1060 l 399 1032 z m 860 785 l 888 813 l 888 828 b 860 972 888 831 860 897 l 97 972 l 69 944 l 69 929 b 97 785 69 929 97 861 l 799 785 l 142 188 l 97 188 l 69 160 l 69 144 b 97 0 69 144 97 76 l 860 0 l 888 28 l 888 43 b 860 188 888 46 860 113 l 161 188 l 818 785 z "},"a":{"ha":828,"x_min":0,"x_max":0,"o":"m 511 694 l 161 694 l 161 679 b 378 532 256 679 340 619 l 413 456 l 149 357 b 42 201 110 321 42 264 b 563 128 42 -10 328 -164 l 608 29 l 635 0 l 653 0 b 814 29 653 0 724 28 z m 236 326 b 419 440 274 390 375 429 l 557 142 b 236 326 372 -69 149 176 z "},"á":{"ha":828,"x_min":0,"x_max":0,"o":"m 553 1068 l 407 1068 l 378 1039 l 322 822 l 335 822 z m 511 694 l 161 694 l 161 679 b 378 532 256 679 340 619 l 413 456 l 149 357 b 42 201 110 321 42 264 b 563 128 42 -10 328 -164 l 608 29 l 635 0 l 653 0 b 814 29 653 0 724 28 z m 236 326 b 419 440 274 390 375 429 l 557 142 b 236 326 372 -69 149 176 z "},"ă":{"ha":828,"x_min":0,"x_max":0,"o":"m 342 856 b 485 933 407 856 456 892 l 521 1035 l 507 1035 b 342 943 493 957 444 943 b 179 1035 239 943 193 957 l 165 1035 l 201 933 b 342 856 229 889 275 856 z m 511 694 l 161 694 l 161 679 b 378 532 256 679 340 619 l 413 456 l 149 357 b 42 201 110 321 42 264 b 563 128 42 -10 328 -164 l 608 29 l 635 0 l 653 0 b 814 29 653 0 724 28 z m 236 326 b 419 440 274 390 375 429 l 557 142 b 236 326 372 -69 149 176 z "},"â":{"ha":828,"x_min":0,"x_max":0,"o":"m 358 1021 l 603 822 l 619 822 l 465 1039 l 425 1068 l 292 1068 l 250 1039 l 96 822 l 114 822 z m 511 694 l 161 694 l 161 679 b 378 532 256 679 340 619 l 413 456 l 149 357 b 42 201 110 321 42 264 b 563 128 42 -10 328 -164 l 608 29 l 635 0 l 653 0 b 814 29 653 0 724 28 z m 236 326 b 419 440 274 390 375 429 l 557 142 b 236 326 372 -69 149 176 z "},"ä":{"ha":828,"x_min":0,"x_max":0,"o":"m 122 836 b 267 864 122 836 190 864 l 267 1026 l 239 1054 l 224 1054 b 79 1026 221 1054 154 1026 l 79 864 l 107 836 z m 468 836 b 613 864 468 836 536 864 l 613 1026 l 585 1054 l 569 1054 b 425 1026 567 1054 500 1026 l 425 864 l 453 836 z m 511 694 l 161 694 l 161 679 b 378 532 256 679 340 619 l 413 456 l 149 357 b 42 201 110 321 42 264 b 563 128 42 -10 328 -164 l 608 29 l 635 0 l 653 0 b 814 29 653 0 724 28 z m 236 326 b 419 440 274 390 375 429 l 557 142 b 236 326 372 -69 149 176 z "},"à":{"ha":828,"x_min":0,"x_max":0,"o":"m 494 822 l 439 1039 l 410 1068 l 264 1068 l 482 822 z m 511 694 l 161 694 l 161 679 b 378 532 256 679 340 619 l 413 456 l 149 357 b 42 201 110 321 42 264 b 563 128 42 -10 328 -164 l 608 29 l 635 0 l 653 0 b 814 29 653 0 724 28 z m 236 326 b 419 440 274 390 375 429 l 557 142 b 236 326 372 -69 149 176 z "},"ā":{"ha":828,"x_min":0,"x_max":0,"o":"m 133 878 b 614 906 133 878 353 906 l 614 985 l 586 1013 l 571 1013 b 90 985 568 1013 353 985 l 90 906 l 118 878 z m 511 694 l 161 694 l 161 679 b 378 532 256 679 340 619 l 413 456 l 149 357 b 42 201 110 321 42 264 b 563 128 42 -10 328 -164 l 608 29 l 635 0 l 653 0 b 814 29 653 0 724 28 z m 236 326 b 419 440 274 390 375 429 l 557 142 b 236 326 372 -69 149 176 z "},"ą":{"ha":828,"x_min":0,"x_max":0,"o":"m 586 -114 l 653 0 b 814 29 658 3 728 28 l 511 694 l 161 694 l 161 679 b 378 532 256 679 340 619 l 413 456 l 149 357 b 42 201 110 321 42 264 b 563 128 42 -10 328 -164 l 608 29 l 553 -146 l 561 -151 l 565 -151 l 579 -126 b 618 -326 743 -65 761 -222 l 618 -339 l 671 -354 b 586 -114 893 -207 757 -54 z m 236 326 b 419 440 274 390 375 429 l 557 142 b 236 326 372 -69 149 176 z "},"å":{"ha":828,"x_min":0,"x_max":0,"o":"m 343 844 b 443 944 399 844 443 889 b 343 1044 443 1000 399 1044 b 243 944 288 1044 243 1000 b 343 844 243 889 288 844 z m 343 1011 b 410 944 381 1011 410 981 b 343 878 410 907 381 878 b 276 944 306 878 276 907 b 343 1011 276 981 306 1011 z m 511 694 l 161 694 l 161 679 b 378 532 256 679 340 619 l 413 456 l 149 357 b 42 201 110 321 42 264 b 563 128 42 -10 328 -164 l 608 29 l 635 0 l 653 0 b 814 29 653 0 724 28 z m 236 326 b 419 440 274 390 375 429 l 557 142 b 236 326 372 -69 149 176 z "},"ã":{"ha":828,"x_min":0,"x_max":0,"o":"m 299 942 b 564 924 385 886 425 828 l 557 942 b 292 1061 451 885 369 1019 l 279 1061 l 153 956 l 164 946 b 299 942 204 990 243 978 z m 511 694 l 161 694 l 161 679 b 378 532 256 679 340 619 l 413 456 l 149 357 b 42 201 110 321 42 264 b 563 128 42 -10 328 -164 l 608 29 l 635 0 l 653 0 b 814 29 653 0 724 28 z m 236 326 b 419 440 274 390 375 429 l 557 142 b 236 326 372 -69 149 176 z "},"æ":{"ha":1188,"x_min":0,"x_max":0,"o":"m 1118 681 l 1118 694 l 831 694 b 569 565 722 694 629 647 l 511 694 l 161 694 l 161 679 b 378 532 256 679 340 619 l 413 456 l 149 357 b 42 201 110 321 42 264 b 563 128 42 -10 328 -164 l 608 29 l 635 0 l 653 0 b 701 14 653 0 671 7 b 831 -19 744 -8 790 -19 b 1117 156 1018 -19 1075 85 l 1104 163 b 672 381 981 -28 731 83 b 669 397 671 386 671 392 l 1103 397 l 1117 411 l 1061 411 b 1118 681 1063 625 1094 665 z m 668 411 b 831 681 632 671 750 681 l 863 681 b 1046 411 990 681 1036 468 z m 236 326 b 419 440 274 390 375 429 l 533 193 l 540 178 l 557 142 b 236 326 372 -69 149 176 z "},"b":{"ha":815,"x_min":0,"x_max":0,"o":"m 421 694 b 257 633 354 694 308 674 l 257 1083 l 229 1111 l 214 1111 b 69 1083 211 1111 144 1083 l 69 28 l 97 0 l 113 0 b 257 28 113 0 181 28 l 257 58 b 421 -15 306 17 354 -15 b 774 340 565 -15 774 61 b 421 694 774 618 561 694 z m 421 -1 b 257 74 378 -1 322 19 l 257 618 b 421 681 324 671 378 681 b 586 340 504 681 586 628 b 421 -1 586 51 504 -1 z "},"c":{"ha":725,"x_min":0,"x_max":0,"o":"m 368 681 l 400 681 b 586 536 547 681 586 536 l 599 536 b 656 681 599 624 632 665 l 656 694 l 368 694 b 42 338 182 694 42 558 b 368 -19 42 111 233 -19 b 654 156 556 -19 613 85 l 642 163 b 210 381 518 -28 268 83 b 368 681 160 669 285 681 z "},"ć":{"ha":725,"x_min":0,"x_max":0,"o":"m 553 1068 l 407 1068 l 378 1039 l 322 822 l 335 822 z m 368 681 l 400 681 b 586 536 547 681 586 536 l 599 536 b 656 681 599 624 632 665 l 656 694 l 368 694 b 42 338 182 694 42 558 b 368 -19 42 111 233 -19 b 654 156 556 -19 613 85 l 642 163 b 210 381 518 -28 268 83 b 368 681 160 669 285 681 z "},"č":{"ha":725,"x_min":0,"x_max":0,"o":"m 303 822 l 436 822 l 476 851 l 631 1068 l 614 1068 l 369 869 l 125 1068 l 107 1068 l 261 851 z m 368 681 l 400 681 b 586 536 547 681 586 536 l 599 536 b 656 681 599 624 632 665 l 656 694 l 368 694 b 42 338 182 694 42 558 b 368 -19 42 111 233 -19 b 654 156 556 -19 613 85 l 642 163 b 210 381 518 -28 268 83 b 368 681 160 669 285 681 z "},"ç":{"ha":725,"x_min":0,"x_max":0,"o":"m 368 681 l 400 681 b 586 536 547 681 586 536 l 599 536 b 656 681 599 624 632 665 l 656 694 l 368 694 b 42 338 182 694 42 558 b 308 -11 42 143 183 19 l 265 -146 l 274 -151 l 278 -151 l 292 -126 b 331 -326 456 -65 474 -222 l 331 -339 l 383 -354 b 299 -114 606 -207 469 -54 l 354 -19 l 368 -19 b 654 156 556 -19 613 85 l 642 163 b 210 381 518 -28 268 83 b 368 681 160 669 285 681 z "},"ċ":{"ha":725,"x_min":0,"x_max":0,"o":"m 317 835 b 461 863 317 835 385 863 l 461 1025 l 433 1053 l 418 1053 b 274 1025 415 1053 349 1025 l 274 863 l 301 835 z m 368 681 l 400 681 b 586 536 547 681 586 536 l 599 536 b 656 681 599 624 632 665 l 656 694 l 368 694 b 42 338 182 694 42 558 b 368 -19 42 111 233 -19 b 654 156 556 -19 613 85 l 642 163 b 210 381 518 -28 268 83 b 368 681 160 669 285 681 z "},"d":{"ha":819,"x_min":0,"x_max":0,"o":"m 722 1111 l 707 1111 b 563 1083 704 1111 638 1083 l 563 631 b 394 694 510 672 463 694 b 42 340 254 694 42 618 b 394 -15 42 61 250 -15 b 563 61 463 -15 513 18 l 563 28 l 590 0 l 606 0 b 750 28 606 0 674 28 l 750 1083 z m 394 -1 b 229 340 311 -1 229 51 b 394 681 229 628 311 681 b 563 614 438 681 494 669 l 563 78 b 394 -1 496 21 439 -1 z "},"ð":{"ha":788,"x_min":0,"x_max":0,"o":"m 504 903 l 596 961 l 589 972 l 492 910 b 174 974 397 960 283 974 l 174 958 b 450 883 242 958 368 951 l 325 804 l 218 683 l 364 683 l 393 713 l 342 800 l 460 875 b 529 704 501 838 529 783 l 529 594 b 379 621 486 611 436 621 b 42 317 188 621 42 539 b 379 -14 42 103 221 -14 b 718 444 563 -14 718 117 b 504 903 718 697 629 833 z m 379 -1 b 229 289 307 -1 229 51 b 379 607 229 558 279 607 b 529 576 425 607 479 600 l 529 288 b 379 -1 529 103 493 -1 z "},"ď":{"ha":1007,"x_min":0,"x_max":0,"o":"m 707 1111 b 563 1083 704 1111 638 1083 l 563 631 b 394 694 510 672 463 694 b 42 340 254 694 42 618 b 394 -15 42 61 250 -15 b 563 61 463 -15 513 18 l 563 28 l 590 0 l 606 0 b 750 28 606 0 674 28 l 750 1083 l 722 1111 z m 861 1111 l 832 1082 l 776 865 l 789 865 l 1007 1111 z m 394 -1 b 229 340 311 -1 229 51 b 394 681 229 628 311 681 b 563 614 438 681 494 669 l 563 78 b 394 -1 496 21 439 -1 z "},"đ":{"ha":815,"x_min":0,"x_max":0,"o":"m 815 854 l 806 869 l 750 869 l 750 1083 l 722 1111 l 707 1111 b 563 1083 704 1111 638 1083 l 563 872 b 335 1010 425 883 364 936 l 321 1010 b 215 869 321 958 260 869 l 215 854 l 563 854 l 563 631 b 394 694 510 672 463 694 b 42 340 254 694 42 618 b 394 -15 42 61 250 -15 b 563 61 463 -15 513 18 l 563 28 l 590 0 l 606 0 b 750 28 606 0 674 28 l 750 854 z m 394 -1 b 229 340 311 -1 229 51 b 394 681 229 628 311 681 b 563 614 438 681 494 669 l 563 78 b 394 -1 496 21 439 -1 z "},"e":{"ha":725,"x_min":0,"x_max":0,"o":"m 656 681 l 656 694 l 368 694 b 42 338 182 694 42 558 b 368 -19 42 111 233 -19 b 654 156 556 -19 613 85 l 642 163 b 210 381 518 -28 268 83 b 207 397 208 386 208 392 l 640 397 l 654 411 l 599 411 b 656 681 600 625 632 665 z m 206 411 b 368 681 169 671 288 681 l 400 681 b 583 411 528 681 574 468 z "},"é":{"ha":725,"x_min":0,"x_max":0,"o":"m 553 1068 l 407 1068 l 378 1039 l 322 822 l 335 822 z m 656 681 l 656 694 l 368 694 b 42 338 182 694 42 558 b 368 -19 42 111 233 -19 b 654 156 556 -19 613 85 l 642 163 b 210 381 518 -28 268 83 b 207 397 208 386 208 392 l 640 397 l 654 411 l 599 411 b 656 681 600 625 632 665 z m 206 411 b 368 681 169 671 288 681 l 400 681 b 583 411 528 681 574 468 z "},"ě":{"ha":725,"x_min":0,"x_max":0,"o":"m 303 822 l 436 822 l 476 851 l 631 1068 l 614 1068 l 369 869 l 125 1068 l 107 1068 l 261 851 z m 656 681 l 656 694 l 368 694 b 42 338 182 694 42 558 b 368 -19 42 111 233 -19 b 654 156 556 -19 613 85 l 642 163 b 210 381 518 -28 268 83 b 207 397 208 386 208 392 l 640 397 l 654 411 l 599 411 b 656 681 600 625 632 665 z m 206 411 b 368 681 169 671 288 681 l 400 681 b 583 411 528 681 574 468 z "},"ê":{"ha":725,"x_min":0,"x_max":0,"o":"m 392 1021 l 636 822 l 653 822 l 499 1039 l 458 1068 l 325 1068 l 283 1039 l 129 822 l 147 822 z m 656 681 l 656 694 l 368 694 b 42 338 182 694 42 558 b 368 -19 42 111 233 -19 b 654 156 556 -19 613 85 l 642 163 b 210 381 518 -28 268 83 b 207 397 208 386 208 392 l 640 397 l 654 411 l 599 411 b 656 681 600 625 632 665 z m 206 411 b 368 681 169 671 288 681 l 400 681 b 583 411 528 681 574 468 z "},"ë":{"ha":725,"x_min":0,"x_max":0,"o":"m 146 836 b 290 864 146 836 214 864 l 290 1026 l 263 1054 l 247 1054 b 103 1026 244 1054 178 1026 l 103 864 l 131 836 z m 492 836 b 636 864 492 836 560 864 l 636 1026 l 608 1054 l 593 1054 b 449 1026 590 1054 524 1026 l 449 864 l 476 836 z m 656 681 l 656 694 l 368 694 b 42 338 182 694 42 558 b 368 -19 42 111 233 -19 b 654 156 556 -19 613 85 l 642 163 b 210 381 518 -28 268 83 b 207 397 208 386 208 392 l 640 397 l 654 411 l 599 411 b 656 681 600 625 632 665 z m 206 411 b 368 681 169 671 288 681 l 400 681 b 583 411 528 681 574 468 z "},"ė":{"ha":725,"x_min":0,"x_max":0,"o":"m 318 836 b 463 864 318 836 386 864 l 463 1026 l 435 1054 l 419 1054 b 275 1026 417 1054 350 1026 l 275 864 l 303 836 z m 656 681 l 656 694 l 368 694 b 42 338 182 694 42 558 b 368 -19 42 111 233 -19 b 654 156 556 -19 613 85 l 642 163 b 210 381 518 -28 268 83 b 207 397 208 386 208 392 l 640 397 l 654 411 l 599 411 b 656 681 600 625 632 665 z m 206 411 b 368 681 169 671 288 681 l 400 681 b 583 411 528 681 574 468 z "},"è":{"ha":725,"x_min":0,"x_max":0,"o":"m 449 822 l 393 1039 l 364 1068 l 218 1068 l 436 822 z m 656 681 l 656 694 l 368 694 b 42 338 182 694 42 558 b 368 -19 42 111 233 -19 b 654 156 556 -19 613 85 l 642 163 b 210 381 518 -28 268 83 b 207 397 208 386 208 392 l 640 397 l 654 411 l 599 411 b 656 681 600 625 632 665 z m 206 411 b 368 681 169 671 288 681 l 400 681 b 583 411 528 681 574 468 z "},"ē":{"ha":725,"x_min":0,"x_max":0,"o":"m 149 878 b 629 906 149 878 368 906 l 629 985 l 601 1013 l 586 1013 b 106 985 583 1013 368 985 l 106 906 l 133 878 z m 656 681 l 656 694 l 368 694 b 42 338 182 694 42 558 b 368 -19 42 111 233 -19 b 654 156 556 -19 613 85 l 642 163 b 210 381 518 -28 268 83 b 207 397 208 386 208 392 l 640 397 l 654 411 l 599 411 b 656 681 600 625 632 665 z m 206 411 b 368 681 169 671 288 681 l 400 681 b 583 411 528 681 574 468 z "},"ę":{"ha":725,"x_min":0,"x_max":0,"o":"m 656 681 l 656 694 l 368 694 b 42 338 182 694 42 558 b 340 -18 42 126 208 -1 l 292 -168 l 300 -174 l 304 -174 l 318 -149 b 357 -349 482 -87 500 -244 l 357 -361 l 410 -376 b 325 -136 632 -229 496 -76 l 394 -19 b 654 156 561 -10 614 88 l 642 163 b 210 381 518 -28 268 83 b 207 397 208 386 208 392 l 640 397 l 654 411 l 599 411 b 656 681 600 625 632 665 z m 206 411 b 368 681 169 671 288 681 l 400 681 b 583 411 528 681 574 468 z "},"f":{"ha":717,"x_min":0,"x_max":0,"o":"m 408 972 b 82 657 222 972 82 836 l 82 535 l 24 535 l 14 519 l 82 519 l 82 -110 l 110 -139 l 125 -139 b 268 -110 125 -139 193 -110 l 268 519 l 553 519 l 560 535 l 268 535 l 268 657 b 408 958 268 922 325 958 l 440 958 b 626 536 604 958 626 536 l 639 536 b 696 958 639 901 672 943 l 696 972 z "},"g":{"ha":843,"x_min":0,"x_max":0,"o":"m 746 694 l 731 694 b 586 667 728 694 661 667 l 586 606 b 381 694 563 654 506 694 b 42 338 182 694 42 558 b 368 -19 42 111 233 -19 b 586 60 478 -19 543 17 b 583 -149 586 -24 585 -92 b 88 -274 399 -67 88 -79 b 500 -462 88 -439 389 -526 b 774 63 721 -340 774 -265 l 774 667 z m 586 235 l 586 101 b 210 381 454 6 260 124 b 381 681 160 669 319 681 b 586 536 446 681 586 672 z m 496 -447 b 231 -274 385 -511 231 -429 b 583 -164 231 -154 363 -65 b 496 -447 576 -381 557 -412 z "},"ğ":{"ha":843,"x_min":0,"x_max":0,"o":"m 382 856 b 525 933 447 856 496 892 l 561 1035 l 547 1035 b 382 943 533 957 485 943 b 219 1035 279 943 233 957 l 206 1035 l 242 933 b 382 856 269 889 315 856 z m 746 694 l 731 694 b 586 667 728 694 661 667 l 586 608 b 381 694 563 656 507 694 b 42 338 182 694 42 558 b 368 -19 42 111 233 -19 b 586 60 478 -19 543 17 b 583 -149 586 -24 585 -92 b 88 -274 399 -67 88 -79 b 500 -462 88 -439 389 -526 b 774 63 721 -340 774 -265 l 774 667 z m 586 235 l 586 101 b 210 381 454 6 260 124 b 381 681 160 669 319 681 b 586 536 446 681 586 672 z m 496 -447 b 231 -274 385 -511 231 -429 b 583 -164 231 -154 363 -65 b 496 -447 576 -381 557 -412 z "},"ģ":{"ha":843,"x_min":0,"x_max":0,"o":"m 600 1068 l 454 1068 l 425 1039 l 369 822 l 382 822 z m 746 694 l 731 694 b 586 667 728 694 661 667 l 586 608 b 381 694 563 656 507 694 b 42 338 182 694 42 558 b 368 -19 42 111 233 -19 b 586 60 478 -19 543 17 b 583 -149 586 -24 585 -92 b 88 -274 399 -67 88 -79 b 500 -462 88 -439 389 -526 b 774 63 721 -340 774 -265 l 774 667 z m 586 235 l 586 101 b 210 381 454 6 260 124 b 381 681 160 669 319 681 b 586 536 446 681 586 672 z m 496 -447 b 231 -274 385 -511 231 -429 b 583 -164 231 -154 363 -65 b 496 -447 576 -381 557 -412 z "},"ġ":{"ha":843,"x_min":0,"x_max":0,"o":"m 331 835 b 475 863 331 835 399 863 l 475 1025 l 447 1053 l 432 1053 b 288 1025 429 1053 363 1025 l 288 863 l 315 835 z m 746 694 l 731 694 b 586 667 728 694 661 667 l 586 608 b 381 694 563 656 507 694 b 42 338 182 694 42 558 b 368 -19 42 111 233 -19 b 586 60 478 -19 543 17 b 583 -149 586 -24 585 -92 b 88 -274 399 -67 88 -79 b 500 -462 88 -439 389 -526 b 774 63 721 -340 774 -265 l 774 667 z m 586 235 l 586 101 b 210 381 454 6 260 124 b 381 681 160 669 319 681 b 586 536 446 681 586 672 z m 496 -447 b 231 -274 385 -511 231 -429 b 583 -164 231 -154 363 -65 b 496 -447 576 -381 557 -412 z "},"h":{"ha":785,"x_min":0,"x_max":0,"o":"m 390 694 b 257 656 338 694 297 681 l 257 1083 l 229 1111 l 214 1111 b 69 1083 211 1111 144 1083 l 69 28 l 97 0 l 113 0 b 257 28 113 0 181 28 l 257 639 b 390 681 310 674 354 681 b 556 340 474 681 556 628 l 556 28 l 583 0 l 599 0 b 743 28 599 0 667 28 l 743 340 b 390 694 743 618 531 694 z "},"ħ":{"ha":850,"x_min":0,"x_max":0,"o":"m 456 694 b 322 656 403 694 363 681 l 322 854 l 600 854 l 600 869 b 494 1010 556 869 494 958 l 481 1010 b 322 882 457 950 413 904 l 322 1083 l 294 1111 l 279 1111 b 135 1083 276 1111 210 1083 l 135 869 l 10 869 l 0 854 l 135 854 l 135 28 l 163 0 l 178 0 b 322 28 178 0 246 28 l 322 639 b 456 681 375 674 419 681 b 621 340 539 681 621 628 l 621 28 l 649 0 l 664 0 b 808 28 664 0 732 28 l 808 340 b 456 694 808 618 596 694 z "},"i":{"ha":326,"x_min":0,"x_max":0,"o":"m 257 863 l 257 1025 l 229 1053 l 214 1053 b 69 1025 211 1053 144 1025 l 69 863 l 97 835 l 113 835 b 257 863 113 835 181 863 z m 257 28 l 257 667 l 229 694 l 214 694 b 69 667 211 694 144 667 l 69 28 l 97 0 l 113 0 b 257 28 113 0 181 28 z "},"ı":{"ha":326,"x_min":0,"x_max":0,"o":"m 257 28 l 257 667 l 229 694 l 214 694 b 69 667 211 694 144 667 l 69 28 l 97 0 l 113 0 b 257 28 113 0 181 28 z "},"í":{"ha":326,"x_min":0,"x_max":0,"o":"m 71 822 l 83 822 l 301 1068 l 156 1068 l 126 1039 z m 257 28 l 257 667 l 229 694 l 214 694 b 69 667 211 694 144 667 l 69 28 l 97 0 l 113 0 b 257 28 113 0 181 28 z "},"î":{"ha":326,"x_min":0,"x_max":0,"o":"m 265 1039 l 225 1068 l 92 1068 l 50 1039 l -104 822 l -86 822 l 158 1021 l 403 822 l 419 822 z m 214 694 b 69 667 211 694 144 667 l 69 28 l 97 0 l 113 0 b 257 28 113 0 181 28 l 257 667 l 229 694 z "},"ï":{"ha":326,"x_min":0,"x_max":0,"o":"m 85 864 l 85 1026 l 57 1054 l 42 1054 b -103 1026 39 1054 -28 1026 l -103 864 l -75 836 l -60 836 b 85 864 -60 836 8 864 z m 431 864 l 431 1026 l 403 1054 l 388 1054 b 243 1026 385 1054 318 1026 l 243 864 l 271 836 l 286 836 b 431 864 286 836 354 864 z m 257 28 l 257 667 l 229 694 l 214 694 b 69 667 211 694 144 667 l 69 28 l 97 0 l 113 0 b 257 28 113 0 181 28 z "},"ì":{"ha":326,"x_min":0,"x_max":0,"o":"m 253 822 l 197 1039 l 168 1068 l 22 1068 l 240 822 z m 257 28 l 257 667 l 229 694 l 214 694 b 69 667 211 694 144 667 l 69 28 l 97 0 l 113 0 b 257 28 113 0 181 28 z "},"ī":{"ha":326,"x_min":0,"x_max":0,"o":"m 425 906 l 425 985 l 397 1013 l 382 1013 b -99 985 379 1013 164 985 l -99 906 l -71 878 l -56 878 b 425 906 -56 878 164 906 z m 257 28 l 257 667 l 229 694 l 214 694 b 69 667 211 694 144 667 l 69 28 l 97 0 l 113 0 b 257 28 113 0 181 28 z "},"į":{"ha":326,"x_min":0,"x_max":0,"o":"m 229 1053 l 214 1053 b 69 1025 211 1053 144 1025 l 69 863 l 97 835 l 113 835 b 257 863 113 835 181 863 l 257 1025 z m 214 694 b 69 667 211 694 144 667 l 69 33 l 4 -168 l 13 -174 l 17 -174 l 31 -149 b 69 -349 194 -87 213 -244 l 69 -361 l 122 -376 b 38 -136 344 -229 208 -76 l 118 3 b 257 28 138 8 194 28 l 257 667 l 229 694 z "},"j":{"ha":354,"x_min":0,"x_max":0,"o":"m 257 1053 l 242 1053 b 97 1025 239 1053 172 1025 l 97 863 l 125 835 l 140 835 b 285 863 140 835 208 863 l 285 1025 z m 242 694 b 97 667 239 694 172 667 l 97 229 b -28 -412 97 -376 97 -412 l -28 -439 b 285 63 257 -439 285 -346 l 285 667 l 257 694 z "},"k":{"ha":885,"x_min":0,"x_max":0,"o":"m 532 458 b 442 463 511 458 479 460 l 638 693 l 492 693 l 463 664 l 515 572 l 424 465 b 282 496 378 469 326 479 l 272 485 l 354 382 l 257 268 l 257 1082 l 229 1111 l 213 1111 b 69 1082 211 1110 146 1082 l 69 29 l 99 0 l 113 0 b 257 29 114 1 179 29 l 257 244 l 364 371 l 635 29 b 828 0 749 29 821 3 l 843 0 l 871 29 z "},"ķ":{"ha":885,"x_min":0,"x_max":0,"o":"m 532 458 b 442 463 511 458 479 460 l 638 693 l 492 693 l 463 664 l 515 572 l 424 465 b 282 496 378 469 326 479 l 272 485 l 354 382 l 257 268 l 257 1082 l 229 1111 l 213 1111 b 69 1082 211 1110 146 1082 l 69 29 l 99 0 l 113 0 b 257 29 114 1 179 29 l 257 244 l 364 371 l 635 29 b 828 0 749 29 821 3 l 843 0 l 871 29 z m 383 -114 l 444 -8 l 410 10 l 397 4 l 349 -146 l 357 -151 l 361 -151 l 375 -126 b 414 -326 539 -65 557 -222 l 414 -339 l 467 -354 b 383 -114 689 -207 553 -54 z "},"l":{"ha":326,"x_min":0,"x_max":0,"o":"m 257 29 l 257 1082 l 229 1111 l 213 1111 b 69 1082 211 1110 146 1082 l 69 29 l 99 0 l 113 0 b 257 29 114 1 179 29 z "},"ĺ":{"ha":326,"x_min":0,"x_max":0,"o":"m 69 1004 l 82 1004 l 300 1250 l 154 1250 l 125 1221 z m 257 29 l 257 943 l 229 972 l 213 972 b 69 943 211 971 146 943 l 69 29 l 99 0 l 113 0 b 257 29 114 1 179 29 z "},"ľ":{"ha":517,"x_min":0,"x_max":0,"o":"m 257 29 l 257 1082 l 229 1111 l 213 1111 b 69 1082 211 1110 146 1082 l 69 29 l 99 0 l 113 0 b 257 29 114 1 179 29 z m 342 943 l 299 726 l 517 972 l 371 972 z "},"ļ":{"ha":326,"x_min":0,"x_max":0,"o":"m 257 29 l 257 1082 l 229 1111 l 213 1111 b 69 1082 211 1110 146 1082 l 69 32 l 13 -146 l 21 -151 l 25 -151 l 39 -126 b 78 -326 203 -65 221 -222 l 78 -339 l 131 -354 b 46 -114 353 -207 217 -54 l 113 0 b 257 29 119 4 182 29 z "},"ł":{"ha":528,"x_min":0,"x_max":0,"o":"m 528 554 b 422 694 483 554 422 643 l 408 694 b 261 569 386 636 343 593 l 261 1082 l 233 1111 l 217 1111 b 74 1082 215 1110 150 1082 l 74 554 l 10 554 l 0 539 l 74 539 l 74 29 l 103 0 l 117 0 b 261 29 118 1 183 29 l 261 539 l 528 539 z "},"m":{"ha":1178,"x_min":0,"x_max":0,"o":"m 783 694 b 603 624 715 694 657 668 b 376 694 533 676 446 694 b 257 664 329 694 293 683 l 257 667 l 229 694 l 214 694 b 69 667 211 694 144 667 l 69 28 l 97 0 l 113 0 b 257 28 113 0 181 28 l 257 649 b 376 681 304 675 344 681 b 542 340 460 681 542 628 l 542 28 l 569 0 l 585 0 b 729 28 585 0 653 28 l 729 340 b 615 614 729 472 681 560 b 783 681 683 669 740 681 b 949 340 867 681 949 628 l 949 28 l 976 0 l 992 0 b 1136 28 992 0 1060 28 l 1136 340 b 783 694 1136 618 924 694 z "},"n":{"ha":771,"x_min":0,"x_max":0,"o":"m 376 694 b 257 664 329 694 293 683 l 257 667 l 229 694 l 214 694 b 69 667 211 694 144 667 l 69 28 l 97 0 l 113 0 b 257 28 113 0 181 28 l 257 649 b 376 681 304 675 344 681 b 542 340 460 681 542 628 l 542 28 l 569 0 l 585 0 b 729 28 585 0 653 28 l 729 340 b 376 694 729 618 517 694 z "},"ń":{"ha":771,"x_min":0,"x_max":0,"o":"m 553 1068 l 407 1068 l 378 1039 l 322 822 l 335 822 z m 376 694 b 257 664 329 694 293 683 l 257 667 l 229 694 l 214 694 b 69 667 211 694 144 667 l 69 28 l 97 0 l 113 0 b 257 28 113 0 181 28 l 257 649 b 376 681 304 675 344 681 b 542 340 460 681 542 628 l 542 28 l 569 0 l 585 0 b 729 28 585 0 653 28 l 729 340 b 376 694 729 618 517 694 z "},"ň":{"ha":771,"x_min":0,"x_max":0,"o":"m 311 822 l 444 822 l 485 851 l 639 1068 l 622 1068 l 378 869 l 133 1068 l 115 1068 l 269 851 z m 376 694 b 257 664 329 694 293 683 l 257 667 l 229 694 l 214 694 b 69 667 211 694 144 667 l 69 28 l 97 0 l 113 0 b 257 28 113 0 181 28 l 257 649 b 376 681 304 675 344 681 b 542 340 460 681 542 628 l 542 28 l 569 0 l 585 0 b 729 28 585 0 653 28 l 729 340 b 376 694 729 618 517 694 z "},"ņ":{"ha":771,"x_min":0,"x_max":0,"o":"m 376 694 b 257 664 329 694 293 683 l 257 667 l 229 694 l 214 694 b 69 667 211 694 144 667 l 69 28 l 97 0 l 113 0 b 257 28 113 0 181 28 l 257 649 b 376 681 304 675 344 681 b 542 340 460 681 542 628 l 542 28 l 569 0 l 585 0 b 729 28 585 0 653 28 l 729 340 b 376 694 729 618 517 694 z m 329 -114 l 390 -8 l 356 10 l 343 4 l 294 -146 l 303 -151 l 307 -151 l 321 -126 b 360 -326 485 -65 503 -222 l 360 -339 l 413 -354 b 329 -114 635 -207 499 -54 z "},"ŋ":{"ha":771,"x_min":0,"x_max":0,"o":"m 376 694 b 257 664 329 694 293 683 l 257 667 l 229 694 l 214 694 b 69 667 211 694 144 667 l 69 28 l 97 0 l 113 0 b 257 28 113 0 181 28 l 257 649 b 376 681 304 675 344 681 b 542 340 460 681 542 628 l 542 0 b 464 -261 542 -111 529 -261 l 464 -292 l 524 -307 b 729 0 668 -307 729 -146 l 729 340 b 376 694 729 618 517 694 z "},"ñ":{"ha":771,"x_min":0,"x_max":0,"o":"m 319 942 b 585 924 406 886 446 828 l 578 942 b 313 1061 472 885 390 1019 l 300 1061 l 174 956 l 185 946 b 319 942 225 990 264 978 z m 376 694 b 257 664 329 694 293 683 l 257 667 l 229 694 l 214 694 b 69 667 211 694 144 667 l 69 28 l 97 0 l 113 0 b 257 28 113 0 181 28 l 257 649 b 376 681 304 675 344 681 b 542 340 460 681 542 628 l 542 28 l 569 0 l 585 0 b 729 28 585 0 653 28 l 729 340 b 376 694 729 618 517 694 z "},"o":{"ha":742,"x_min":0,"x_max":0,"o":"m 372 -15 b 42 346 186 -15 42 101 b 372 706 42 582 185 706 b 700 346 556 706 700 585 b 372 -15 700 104 560 -15 z m 372 692 b 229 346 288 692 229 638 b 372 -1 229 51 288 -1 b 513 346 457 -1 513 51 b 372 692 513 638 457 692 z "},"ó":{"ha":742,"x_min":0,"x_max":0,"o":"m 322 822 l 335 822 l 553 1068 l 407 1068 l 378 1039 z m 372 -15 b 42 346 186 -15 42 101 b 372 706 42 582 185 706 b 700 346 556 706 700 585 b 372 -15 700 104 560 -15 z m 372 692 b 229 346 288 692 229 638 b 372 -1 229 51 288 -1 b 513 346 457 -1 513 51 b 372 692 513 638 457 692 z "},"ô":{"ha":742,"x_min":0,"x_max":0,"o":"m 374 1021 l 618 822 l 635 822 l 481 1039 l 440 1068 l 307 1068 l 265 1039 l 111 822 l 129 822 z m 372 706 b 42 346 185 706 42 582 b 372 -15 42 101 186 -15 b 700 346 560 -15 700 104 b 372 706 700 585 556 706 z m 372 -1 b 229 346 288 -1 229 51 b 372 692 229 638 288 692 b 513 346 457 692 513 638 b 372 -1 513 51 457 -1 z "},"ö":{"ha":742,"x_min":0,"x_max":0,"o":"m 293 864 l 293 1026 l 265 1054 l 250 1054 b 106 1026 247 1054 181 1026 l 106 864 l 133 836 l 149 836 b 293 864 149 836 217 864 z m 639 864 l 639 1026 l 611 1054 l 596 1054 b 451 1026 593 1054 526 1026 l 451 864 l 479 836 l 494 836 b 639 864 494 836 563 864 z m 372 -15 b 42 346 186 -15 42 101 b 372 706 42 582 185 706 b 700 346 556 706 700 585 b 372 -15 700 104 560 -15 z m 372 692 b 229 346 288 692 229 638 b 372 -1 229 51 288 -1 b 513 346 457 -1 513 51 b 372 692 513 638 457 692 z "},"ò":{"ha":742,"x_min":0,"x_max":0,"o":"m 417 822 l 361 1039 l 332 1068 l 186 1068 l 404 822 z m 372 -15 b 42 346 186 -15 42 101 b 372 706 42 582 185 706 b 700 346 556 706 700 585 b 372 -15 700 104 560 -15 z m 372 692 b 229 346 288 692 229 638 b 372 -1 229 51 288 -1 b 513 346 457 -1 513 51 b 372 692 513 638 457 692 z "},"ő":{"ha":742,"x_min":0,"x_max":0,"o":"m 221 822 l 233 822 l 451 1068 l 306 1068 l 276 1039 z m 421 822 l 433 822 l 651 1068 l 506 1068 l 476 1039 z m 372 -15 b 42 346 186 -15 42 101 b 372 706 42 582 185 706 b 700 346 556 706 700 585 b 372 -15 700 104 560 -15 z m 372 692 b 229 346 288 692 229 638 b 372 -1 229 51 288 -1 b 513 346 457 -1 513 51 b 372 692 513 638 457 692 z "},"ō":{"ha":742,"x_min":0,"x_max":0,"o":"m 635 906 l 635 985 l 607 1013 l 592 1013 b 111 985 589 1013 374 985 l 111 906 l 139 878 l 154 878 b 635 906 154 878 374 906 z m 372 -15 b 42 346 186 -15 42 101 b 372 706 42 582 185 706 b 700 346 556 706 700 585 b 372 -15 700 104 560 -15 z m 372 692 b 229 346 288 692 229 638 b 372 -1 229 51 288 -1 b 513 346 457 -1 513 51 b 372 692 513 638 457 692 z "},"ø":{"ha":742,"x_min":0,"x_max":0,"o":"m 618 601 l 674 683 l 653 696 l 601 618 b 372 706 543 676 463 706 b 42 346 185 706 42 582 b 206 24 42 182 107 75 l 190 0 l 83 -121 l 229 -121 l 258 -92 l 206 0 l 217 17 b 372 -15 264 -4 315 -15 b 700 346 560 -15 700 104 b 618 601 700 457 669 542 z m 229 346 b 372 692 229 638 288 692 b 507 478 442 692 492 654 l 256 97 b 229 346 239 150 229 229 z m 372 -1 b 261 81 325 -1 286 15 l 510 444 b 513 346 511 415 513 382 b 372 -1 513 51 457 -1 z "},"õ":{"ha":742,"x_min":0,"x_max":0,"o":"m 168 956 l 294 1061 l 307 1061 b 572 942 385 1019 467 885 l 579 924 b 314 942 440 828 400 886 b 179 946 258 978 219 990 z m 372 -15 b 42 346 186 -15 42 101 b 372 706 42 582 185 706 b 700 346 556 706 700 585 b 372 -15 700 104 560 -15 z m 372 692 b 229 346 288 692 229 638 b 372 -1 229 51 288 -1 b 513 346 457 -1 513 51 b 372 692 513 638 457 692 z "},"œ":{"ha":1217,"x_min":0,"x_max":0,"o":"m 1147 681 l 1147 694 l 860 694 b 624 594 765 694 682 658 b 372 706 564 668 474 706 b 42 346 185 706 42 582 b 372 -15 42 101 186 -15 b 625 96 476 -15 565 22 b 860 -19 692 21 785 -19 b 1146 156 1047 -19 1104 85 l 1133 163 b 701 381 1010 -28 760 83 b 699 397 700 386 700 392 l 1132 397 l 1146 411 l 1090 411 b 1147 681 1092 625 1124 665 z m 372 -1 b 229 346 288 -1 229 51 b 372 692 229 638 288 692 b 513 346 457 692 513 638 b 372 -1 513 51 457 -1 z m 697 411 b 860 681 661 671 779 681 l 892 681 b 1075 411 1019 681 1065 468 z "},"p":{"ha":819,"x_min":0,"x_max":0,"o":"m 425 710 b 257 633 357 710 307 676 l 257 667 l 229 694 l 214 694 b 69 667 214 694 146 667 l 69 -389 l 97 -417 l 113 -417 b 257 -389 115 -417 182 -389 l 257 64 b 425 0 310 22 357 0 b 778 354 565 0 778 76 b 425 710 778 633 569 710 z m 425 14 b 257 81 382 14 325 25 l 257 617 b 425 696 324 674 381 696 b 590 354 508 696 590 643 b 425 14 590 67 508 14 z "},"þ":{"ha":819,"x_min":0,"x_max":0,"o":"m 425 710 b 257 633 357 710 307 676 l 257 944 l 229 972 l 214 972 b 69 944 214 972 146 944 l 69 -389 l 97 -417 l 113 -417 b 257 -389 115 -417 182 -389 l 257 64 b 425 0 310 22 357 0 b 778 354 565 0 778 76 b 425 710 778 633 569 710 z m 425 14 b 257 81 382 14 325 25 l 257 617 b 425 696 324 674 381 696 b 590 354 508 696 590 643 b 425 14 590 67 508 14 z "},"q":{"ha":833,"x_min":0,"x_max":0,"o":"m 746 694 l 731 694 b 586 667 728 694 661 667 l 586 608 b 381 694 563 656 507 694 b 42 338 182 694 42 558 b 368 -19 42 111 233 -19 b 586 60 478 -19 543 17 l 586 -410 l 614 -437 l 629 -437 b 774 -410 629 -437 697 -410 l 774 667 z m 210 381 b 381 681 160 669 319 681 b 586 536 446 681 586 672 l 586 103 b 210 381 454 6 260 124 z "},"r":{"ha":631,"x_min":0,"x_max":0,"o":"m 235 694 l 229 700 l 214 700 b 69 672 211 700 144 672 l 69 28 l 97 0 l 113 0 b 257 28 113 0 181 28 l 257 672 l 249 681 l 333 681 b 519 397 481 681 519 397 l 532 397 b 589 681 532 624 565 665 l 589 694 z "},"ŕ":{"ha":631,"x_min":0,"x_max":0,"o":"m 447 1068 l 301 1068 l 272 1039 l 217 822 l 229 822 z m 235 694 l 229 700 l 214 700 b 69 672 211 700 144 672 l 69 28 l 97 0 l 113 0 b 257 28 113 0 181 28 l 257 672 l 249 681 l 333 681 b 519 397 481 681 519 397 l 532 397 b 589 681 532 624 565 665 l 589 694 z "},"ř":{"ha":631,"x_min":0,"x_max":0,"o":"m 268 822 l 401 822 l 442 851 l 596 1068 l 579 1068 l 335 869 l 90 1068 l 72 1068 l 226 851 z m 229 700 l 214 700 b 69 672 211 700 144 672 l 69 28 l 97 0 l 113 0 b 257 28 113 0 181 28 l 257 672 l 249 681 l 333 681 b 519 397 481 681 519 397 l 532 397 b 589 681 532 624 565 665 l 589 694 l 235 694 z "},"ŗ":{"ha":631,"x_min":0,"x_max":0,"o":"m 235 694 l 229 700 l 214 700 b 69 672 211 700 144 672 l 69 28 l 97 0 l 50 -146 l 58 -151 l 63 -151 l 76 -126 b 115 -326 240 -65 258 -222 l 115 -339 l 168 -354 b 85 -114 390 -207 254 -54 l 160 15 b 257 28 185 21 221 28 l 257 672 l 249 681 l 333 681 b 519 397 481 681 519 397 l 532 397 b 589 681 532 624 565 665 l 589 694 z "},"s":{"ha":628,"x_min":0,"x_max":0,"o":"m 593 217 b 139 538 551 469 188 417 b 249 693 92 658 179 700 b 526 478 375 683 526 478 l 538 485 b 475 711 538 485 472 610 b 272 711 475 711 406 699 b 35 458 157 724 -12 611 b 494 138 124 199 474 288 b 344 0 504 54 442 -11 b 58 233 257 8 107 118 l 44 228 b 100 -26 97 75 100 -26 b 326 -15 107 -18 129 10 b 593 217 469 -31 611 94 z "},"ś":{"ha":628,"x_min":0,"x_max":0,"o":"m 260 822 l 272 822 l 490 1068 l 344 1068 l 315 1039 z m 593 217 b 139 538 551 469 188 417 b 249 693 92 658 179 700 b 526 478 375 683 526 478 l 538 485 b 475 711 538 485 472 610 b 272 711 475 711 406 699 b 35 458 157 724 -12 611 b 494 138 124 199 474 288 b 344 0 504 54 442 -11 b 58 233 257 8 107 118 l 44 228 b 100 -26 97 75 100 -26 b 326 -15 107 -18 129 10 b 593 217 469 -31 611 94 z "},"š":{"ha":628,"x_min":0,"x_max":0,"o":"m 228 822 l 361 822 l 401 851 l 556 1068 l 539 1068 l 294 869 l 50 1068 l 32 1068 l 186 851 z m 593 217 b 139 538 551 469 188 417 b 249 693 92 658 179 700 b 526 478 375 683 526 478 l 538 485 b 475 711 538 485 472 610 b 272 711 475 711 406 699 b 35 458 157 724 -12 611 b 494 138 124 199 474 288 b 344 0 504 54 442 -11 b 58 233 257 8 107 118 l 44 228 b 100 -26 97 75 100 -26 b 326 -15 107 -18 129 10 b 593 217 469 -31 611 94 z "},"ş":{"ha":628,"x_min":0,"x_max":0,"o":"m 326 -15 b 593 217 469 -31 611 94 b 139 538 551 469 188 417 b 249 693 92 658 179 700 b 526 478 375 683 526 478 l 538 485 b 475 711 538 485 472 610 b 272 711 475 711 406 699 b 35 458 157 724 -12 611 b 494 138 124 199 474 288 b 344 0 504 54 442 -11 b 58 233 257 8 107 118 l 44 228 b 100 -26 97 75 100 -26 b 263 -8 106 -19 124 3 l 218 -146 l 226 -151 l 231 -151 l 244 -126 b 283 -326 408 -65 426 -222 l 283 -339 l 336 -354 b 251 -114 558 -207 422 -54 l 310 -14 b 326 -15 315 -14 321 -14 z "},"ș":{"ha":628,"x_min":0,"x_max":0,"o":"m 326 -15 b 593 217 469 -31 611 94 b 139 538 551 469 188 417 b 249 693 92 658 179 700 b 526 478 375 683 526 478 l 538 485 b 475 711 538 485 472 610 b 272 711 475 711 406 699 b 35 458 157 724 -12 611 b 494 138 124 199 474 288 b 344 0 504 54 442 -11 b 58 233 257 8 107 118 l 44 228 b 100 -26 97 75 100 -26 b 263 -8 106 -19 124 3 l 218 -146 l 226 -151 l 231 -151 l 244 -126 b 283 -326 408 -65 426 -222 l 283 -339 l 336 -354 b 251 -114 558 -207 422 -54 l 310 -14 b 326 -15 315 -14 321 -14 z "},"ß":{"ha":857,"x_min":0,"x_max":0,"o":"m 472 563 l 472 565 b 697 760 572 575 697 631 b 382 976 697 944 564 976 b 257 938 338 976 289 954 l 257 944 l 229 972 l 214 972 b 69 944 211 972 144 944 l 69 -221 l 97 -249 l 113 -249 b 257 -221 113 -249 181 -221 l 257 921 b 382 961 288 938 336 961 b 510 760 496 961 510 865 b 382 571 510 656 510 571 l 307 571 l 307 557 l 371 557 b 628 288 538 557 628 479 b 454 7 628 140 621 7 l 454 -8 b 815 288 628 -8 815 46 b 472 563 815 488 639 563 z "},"t":{"ha":468,"x_min":0,"x_max":0,"o":"m 454 675 l 447 690 l 299 690 l 299 944 l 271 972 l 256 972 b 111 944 253 972 186 944 l 111 690 l 14 690 l 24 675 l 111 675 l 111 28 l 139 0 l 154 0 b 299 28 154 0 222 28 l 299 675 z "},"ŧ":{"ha":668,"x_min":0,"x_max":0,"o":"m 668 554 b 563 694 624 554 563 643 l 549 694 b 354 561 522 626 468 578 l 354 675 l 510 675 l 503 690 l 354 690 l 354 944 l 326 972 l 311 972 b 167 944 308 972 242 944 l 167 690 l 69 690 l 79 675 l 167 675 l 167 554 l 10 554 l 0 539 l 167 539 l 167 28 l 194 0 l 210 0 b 354 28 210 0 278 28 l 354 539 l 668 539 z "},"ť":{"ha":553,"x_min":0,"x_max":0,"o":"m 447 690 l 299 690 l 299 944 l 271 972 l 256 972 b 111 944 253 972 186 944 l 111 690 l 14 690 l 24 675 l 111 675 l 111 28 l 139 0 l 154 0 b 299 28 154 0 222 28 l 299 675 l 454 675 z m 407 972 l 378 943 l 335 726 l 553 972 z "},"ţ":{"ha":468,"x_min":0,"x_max":0,"o":"m 299 28 l 299 675 l 454 675 l 447 690 l 299 690 l 299 944 l 271 972 l 256 972 b 111 944 253 972 186 944 l 111 690 l 14 690 l 24 675 l 111 675 l 111 28 l 56 -146 l 64 -151 l 68 -151 l 82 -126 b 121 -326 246 -65 264 -222 l 121 -339 l 174 -354 b 89 -114 396 -207 260 -54 l 157 1 b 299 28 168 6 231 28 z "},"ț":{"ha":468,"x_min":0,"x_max":0,"o":"m 299 28 l 299 675 l 454 675 l 447 690 l 299 690 l 299 944 l 271 972 l 256 972 b 111 944 253 972 186 944 l 111 690 l 14 690 l 24 675 l 111 675 l 111 28 l 56 -146 l 64 -151 l 68 -151 l 82 -126 b 121 -326 246 -65 264 -222 l 121 -339 l 174 -354 b 89 -114 396 -207 260 -54 l 157 1 b 299 28 168 6 231 28 z "},"u":{"ha":771,"x_min":0,"x_max":0,"o":"m 674 694 l 658 694 b 514 667 658 694 590 667 l 514 46 b 394 14 467 19 426 14 b 229 354 311 14 229 67 l 229 667 l 201 694 l 186 694 b 42 667 186 694 118 667 l 42 354 b 394 0 42 76 254 0 b 514 31 442 0 478 11 l 514 28 l 542 0 l 557 0 b 701 28 560 0 626 28 l 701 667 z "},"ú":{"ha":771,"x_min":0,"x_max":0,"o":"m 553 1068 l 407 1068 l 378 1039 l 322 822 l 335 822 z m 674 694 l 658 694 b 514 667 658 694 590 667 l 514 46 b 394 14 467 19 426 14 b 229 354 311 14 229 67 l 229 667 l 201 694 l 186 694 b 42 667 186 694 118 667 l 42 354 b 394 0 42 76 254 0 b 514 31 442 0 478 11 l 514 28 l 542 0 l 557 0 b 701 28 560 0 626 28 l 701 667 z "},"û":{"ha":771,"x_min":0,"x_max":0,"o":"m 374 1021 l 618 822 l 635 822 l 481 1039 l 440 1068 l 307 1068 l 265 1039 l 111 822 l 129 822 z m 674 694 l 658 694 b 514 667 658 694 590 667 l 514 46 b 394 14 467 19 426 14 b 229 354 311 14 229 67 l 229 667 l 201 694 l 186 694 b 42 667 186 694 118 667 l 42 354 b 394 0 42 76 254 0 b 514 31 442 0 478 11 l 514 28 l 542 0 l 557 0 b 701 28 560 0 626 28 l 701 667 z "},"ü":{"ha":771,"x_min":0,"x_max":0,"o":"m 149 836 b 293 864 149 836 217 864 l 293 1026 l 265 1054 l 250 1054 b 106 1026 247 1054 181 1026 l 106 864 l 133 836 z m 494 836 b 639 864 494 836 563 864 l 639 1026 l 611 1054 l 596 1054 b 451 1026 593 1054 526 1026 l 451 864 l 479 836 z m 674 694 l 658 694 b 514 667 658 694 590 667 l 514 46 b 394 14 467 19 426 14 b 229 354 311 14 229 67 l 229 667 l 201 694 l 186 694 b 42 667 186 694 118 667 l 42 354 b 394 0 42 76 254 0 b 514 31 442 0 478 11 l 514 28 l 542 0 l 557 0 b 701 28 560 0 626 28 l 701 667 z "},"ù":{"ha":771,"x_min":0,"x_max":0,"o":"m 417 822 l 361 1039 l 332 1068 l 186 1068 l 404 822 z m 674 694 l 658 694 b 514 667 658 694 590 667 l 514 46 b 394 14 467 19 426 14 b 229 354 311 14 229 67 l 229 667 l 201 694 l 186 694 b 42 667 186 694 118 667 l 42 354 b 394 0 42 76 254 0 b 514 31 442 0 478 11 l 514 28 l 542 0 l 557 0 b 701 28 560 0 626 28 l 701 667 z "},"ű":{"ha":771,"x_min":0,"x_max":0,"o":"m 471 1068 l 325 1068 l 296 1039 l 240 822 l 253 822 z m 453 822 l 671 1068 l 525 1068 l 496 1039 l 440 822 z m 674 694 l 658 694 b 514 667 658 694 590 667 l 514 46 b 394 14 467 19 426 14 b 229 354 311 14 229 67 l 229 667 l 201 694 l 186 694 b 42 667 186 694 118 667 l 42 354 b 394 0 42 76 254 0 b 514 31 442 0 478 11 l 514 28 l 542 0 l 557 0 b 701 28 560 0 626 28 l 701 667 z "},"ū":{"ha":771,"x_min":0,"x_max":0,"o":"m 151 878 b 632 906 151 878 371 906 l 632 985 l 604 1013 l 589 1013 b 108 985 586 1013 371 985 l 108 906 l 136 878 z m 674 694 l 658 694 b 514 667 658 694 590 667 l 514 46 b 394 14 467 19 426 14 b 229 354 311 14 229 67 l 229 667 l 201 694 l 186 694 b 42 667 186 694 118 667 l 42 354 b 394 0 42 76 254 0 b 514 31 442 0 478 11 l 514 28 l 542 0 l 557 0 b 701 28 560 0 626 28 l 701 667 z "},"ų":{"ha":771,"x_min":0,"x_max":0,"o":"m 701 28 l 701 667 l 674 694 l 658 694 b 514 667 658 694 590 667 l 514 46 b 394 14 467 19 426 14 b 229 354 311 14 229 67 l 229 667 l 201 694 l 186 694 b 42 667 186 694 118 667 l 42 354 b 394 0 42 76 254 0 b 514 31 442 0 478 11 l 514 28 l 458 -146 l 467 -151 l 471 -151 l 485 -126 b 524 -326 649 -65 667 -222 l 524 -339 l 576 -354 b 492 -114 799 -207 663 -54 l 558 0 b 701 28 571 4 632 28 z "},"ů":{"ha":771,"x_min":0,"x_max":0,"o":"m 372 844 b 472 944 428 844 472 889 b 372 1044 472 1000 428 1044 b 272 944 317 1044 272 1000 b 372 844 272 889 317 844 z m 372 1011 b 439 944 410 1011 439 981 b 372 878 439 907 410 878 b 306 944 335 878 306 907 b 372 1011 306 981 335 1011 z m 674 694 l 658 694 b 514 667 658 694 590 667 l 514 46 b 394 14 467 19 426 14 b 229 354 311 14 229 67 l 229 667 l 201 694 l 186 694 b 42 667 186 694 118 667 l 42 354 b 394 0 42 76 254 0 b 514 31 442 0 478 11 l 514 28 l 542 0 l 557 0 b 701 28 560 0 626 28 l 701 667 z "},"v":{"ha":840,"x_min":0,"x_max":0,"o":"m 819 694 l 674 694 l 644 665 l 697 574 l 535 228 l 371 694 l 21 694 l 21 679 b 226 532 115 679 189 619 l 408 29 l 435 0 l 453 0 b 606 29 453 0 515 28 l 543 207 l 713 574 z "},"w":{"ha":1301,"x_min":0,"x_max":0,"o":"m 1281 694 l 1135 694 l 1106 665 l 1158 574 l 996 228 l 832 694 l 482 694 l 482 679 b 683 543 572 679 644 624 l 535 228 l 371 694 l 21 694 l 21 679 b 226 532 115 679 189 619 l 408 29 l 435 0 l 453 0 b 606 29 453 0 515 28 l 543 207 l 690 525 l 869 29 l 896 0 l 914 0 b 1067 29 914 0 976 28 l 1004 207 l 1174 574 z "},"ẃ":{"ha":1301,"x_min":0,"x_max":0,"o":"m 942 1068 l 796 1068 l 767 1039 l 711 822 l 724 822 z m 1281 694 l 1135 694 l 1106 665 l 1158 574 l 996 228 l 832 694 l 482 694 l 482 679 b 683 543 572 679 644 624 l 535 228 l 371 694 l 21 694 l 21 679 b 226 532 115 679 189 619 l 408 29 l 435 0 l 453 0 b 606 29 453 0 515 28 l 543 207 l 690 525 l 869 29 l 896 0 l 914 0 b 1067 29 914 0 976 28 l 1004 207 l 1174 574 z "},"ŵ":{"ha":1301,"x_min":0,"x_max":0,"o":"m 682 1021 l 926 822 l 943 822 l 789 1039 l 749 1068 l 615 1068 l 574 1039 l 419 822 l 438 822 z m 1281 694 l 1135 694 l 1106 665 l 1158 574 l 996 228 l 832 694 l 482 694 l 482 679 b 683 543 572 679 644 624 l 535 228 l 371 694 l 21 694 l 21 679 b 226 532 115 679 189 619 l 408 29 l 435 0 l 453 0 b 606 29 453 0 515 28 l 543 207 l 690 525 l 869 29 l 896 0 l 914 0 b 1067 29 914 0 976 28 l 1004 207 l 1174 574 z "},"ẅ":{"ha":1301,"x_min":0,"x_max":0,"o":"m 467 836 b 611 864 467 836 535 864 l 611 1026 l 583 1054 l 568 1054 b 424 1026 565 1054 499 1026 l 424 864 l 451 836 z m 813 836 b 957 864 813 836 881 864 l 957 1026 l 929 1054 l 914 1054 b 769 1026 911 1054 844 1026 l 769 864 l 797 836 z m 1281 694 l 1135 694 l 1106 665 l 1158 574 l 996 228 l 832 694 l 482 694 l 482 679 b 683 543 572 679 644 624 l 535 228 l 371 694 l 21 694 l 21 679 b 226 532 115 679 189 619 l 408 29 l 435 0 l 453 0 b 606 29 453 0 515 28 l 543 207 l 690 525 l 869 29 l 896 0 l 914 0 b 1067 29 914 0 976 28 l 1004 207 l 1174 574 z "},"ẁ":{"ha":1301,"x_min":0,"x_max":0,"o":"m 713 822 l 657 1039 l 628 1068 l 482 1068 l 700 822 z m 1281 694 l 1135 694 l 1106 665 l 1158 574 l 996 228 l 832 694 l 482 694 l 482 679 b 683 543 572 679 644 624 l 535 228 l 371 694 l 21 694 l 21 679 b 226 532 115 679 189 619 l 408 29 l 435 0 l 453 0 b 606 29 453 0 515 28 l 543 207 l 690 525 l 869 29 l 896 0 l 914 0 b 1067 29 914 0 976 28 l 1004 207 l 1174 574 z "},"x":{"ha":790,"x_min":0,"x_max":0,"o":"m 514 432 l 608 574 l 715 694 l 569 694 l 540 665 l 593 574 l 506 444 l 346 694 l 21 694 l 21 679 b 226 532 115 679 168 624 l 361 321 l 229 122 l 122 1 l 268 1 l 297 31 l 244 122 l 369 307 l 547 29 l 574 0 l 592 0 b 769 29 592 0 669 28 z "},"y":{"ha":924,"x_min":0,"x_max":0,"o":"m 903 694 l 757 694 l 728 665 l 781 574 l 571 126 l 371 694 l 21 694 l 21 679 b 226 532 115 679 189 619 l 408 29 l 435 0 l 453 0 b 521 19 453 0 479 11 l 518 14 l 360 -294 l 253 -415 l 399 -415 l 428 -386 l 375 -294 l 536 14 l 540 24 b 606 29 560 26 582 29 l 579 106 l 796 574 z "},"ý":{"ha":924,"x_min":0,"x_max":0,"o":"m 703 1068 l 557 1068 l 528 1039 l 472 822 l 485 822 z m 903 694 l 757 694 l 728 665 l 781 574 l 571 126 l 371 694 l 21 694 l 21 679 b 226 532 115 679 189 619 l 408 29 l 435 0 l 453 0 b 521 19 453 0 479 11 l 518 14 l 360 -294 l 253 -415 l 399 -415 l 428 -386 l 375 -294 l 536 14 l 540 24 b 606 29 560 26 582 29 l 579 106 l 796 574 z "},"ŷ":{"ha":924,"x_min":0,"x_max":0,"o":"m 513 1021 l 757 822 l 774 822 l 619 1039 l 579 1068 l 446 1068 l 404 1039 l 250 822 l 268 822 z m 903 694 l 757 694 l 728 665 l 781 574 l 571 126 l 371 694 l 21 694 l 21 679 b 226 532 115 679 189 619 l 408 29 l 435 0 l 453 0 b 521 19 453 0 479 11 l 518 14 l 360 -294 l 253 -415 l 399 -415 l 428 -386 l 375 -294 l 536 14 l 540 24 b 606 29 560 26 582 29 l 579 106 l 796 574 z "},"ÿ":{"ha":924,"x_min":0,"x_max":0,"o":"m 281 836 b 425 864 281 836 349 864 l 425 1026 l 397 1054 l 382 1054 b 238 1026 379 1054 313 1026 l 238 864 l 265 836 z m 626 836 b 771 864 626 836 694 864 l 771 1026 l 743 1054 l 728 1054 b 583 1026 725 1054 658 1026 l 583 864 l 611 836 z m 903 694 l 757 694 l 728 665 l 781 574 l 571 126 l 371 694 l 21 694 l 21 679 b 226 532 115 679 189 619 l 408 29 l 435 0 l 453 0 b 521 19 453 0 479 11 l 518 14 l 360 -294 l 253 -415 l 399 -415 l 428 -386 l 375 -294 l 536 14 l 540 24 b 606 29 560 26 582 29 l 579 106 l 796 574 z "},"ỳ":{"ha":924,"x_min":0,"x_max":0,"o":"m 554 822 l 499 1039 l 469 1068 l 324 1068 l 542 822 z m 903 694 l 757 694 l 728 665 l 781 574 l 571 126 l 371 694 l 21 694 l 21 679 b 226 532 115 679 189 619 l 408 29 l 435 0 l 453 0 b 521 19 453 0 479 11 l 518 14 l 360 -294 l 253 -415 l 399 -415 l 428 -386 l 375 -294 l 536 14 l 540 24 b 606 29 560 26 582 29 l 579 106 l 796 574 z "},"z":{"ha":765,"x_min":0,"x_max":0,"o":"m 668 507 l 696 535 l 696 550 b 668 694 696 553 668 619 l 97 694 l 69 667 l 69 651 b 97 507 69 651 97 583 l 594 507 l 150 188 l 97 188 l 69 160 l 69 144 b 97 0 69 144 97 76 l 668 0 l 696 28 l 696 43 b 668 188 696 46 668 113 l 175 188 l 615 507 z "},"ź":{"ha":765,"x_min":0,"x_max":0,"o":"m 553 1068 l 407 1068 l 378 1039 l 322 822 l 335 822 z m 668 507 l 696 535 l 696 550 b 668 694 696 553 668 619 l 97 694 l 69 667 l 69 651 b 97 507 69 651 97 583 l 594 507 l 150 188 l 97 188 l 69 160 l 69 144 b 97 0 69 144 97 76 l 668 0 l 696 28 l 696 43 b 668 188 696 46 668 113 l 175 188 l 615 507 z "},"ž":{"ha":765,"x_min":0,"x_max":0,"o":"m 311 822 l 444 822 l 485 851 l 639 1068 l 622 1068 l 378 869 l 133 1068 l 115 1068 l 269 851 z m 668 507 l 696 535 l 696 550 b 668 694 696 553 668 619 l 97 694 l 69 667 l 69 651 b 97 507 69 651 97 583 l 594 507 l 150 188 l 97 188 l 69 160 l 69 144 b 97 0 69 144 97 76 l 668 0 l 696 28 l 696 43 b 668 188 696 46 668 113 l 175 188 l 615 507 z "},"ż":{"ha":765,"x_min":0,"x_max":0,"o":"m 328 836 b 472 864 328 836 396 864 l 472 1026 l 444 1054 l 429 1054 b 285 1026 426 1054 360 1026 l 285 864 l 313 836 z m 668 507 l 696 535 l 696 550 b 668 694 696 553 668 619 l 97 694 l 69 667 l 69 651 b 97 507 69 651 97 583 l 594 507 l 150 188 l 97 188 l 69 160 l 69 144 b 97 0 69 144 97 76 l 668 0 l 696 28 l 696 43 b 668 188 696 46 668 113 l 175 188 l 615 507 z "},"⁄":{"ha":833,"x_min":0,"x_max":0,"o":""},".":{"ha":326,"x_min":0,"x_max":0,"o":"m 257 28 l 257 190 l 229 218 l 214 218 b 69 190 211 218 144 190 l 69 28 l 97 0 l 113 0 b 257 28 113 0 181 28 z "},",":{"ha":326,"x_min":0,"x_max":0,"o":"m 229 218 l 214 218 b 69 190 211 218 144 190 l 69 28 l 97 0 l 113 0 b 213 25 113 0 156 18 l 133 -132 l 147 -132 l 257 28 l 257 190 z "},":":{"ha":326,"x_min":0,"x_max":0,"o":"m 257 504 l 257 667 l 229 694 l 214 694 b 69 667 211 694 144 667 l 69 504 l 97 476 l 113 476 b 257 504 113 476 181 504 z m 257 28 l 257 190 l 229 218 l 214 218 b 69 190 211 218 144 190 l 69 28 l 97 0 l 113 0 b 257 28 113 0 181 28 z "},";":{"ha":326,"x_min":0,"x_max":0,"o":"m 229 694 l 214 694 b 69 667 211 694 144 667 l 69 504 l 97 476 l 113 476 b 257 504 113 476 181 504 l 257 667 z m 214 218 b 69 190 211 218 144 190 l 69 28 l 97 0 l 113 0 b 213 25 113 0 156 18 l 133 -132 l 147 -132 l 257 28 l 257 190 l 229 218 z "},"…":{"ha":326,"x_min":0,"x_max":0,"o":"m 229 218 l 214 218 b 69 190 211 218 144 190 l 69 28 l 97 0 l 113 0 b 257 28 113 0 181 28 l 257 190 z "},"!":{"ha":326,"x_min":0,"x_max":0,"o":"m 257 325 l 257 944 l 229 972 l 214 972 b 69 944 211 972 144 944 l 69 325 l 97 297 l 113 297 b 257 325 113 297 181 325 z m 257 28 l 257 190 l 229 218 l 214 218 b 69 190 211 218 144 190 l 69 28 l 97 0 l 113 0 b 257 28 113 0 181 28 z "},"¡":{"ha":326,"x_min":0,"x_max":0,"o":"m 257 667 b 113 694 181 667 113 694 l 97 694 l 69 667 l 69 504 b 214 476 144 504 211 476 l 229 476 l 257 504 z m 257 369 b 113 397 181 369 113 397 l 97 397 l 69 369 l 69 -250 b 214 -278 144 -250 211 -278 l 229 -278 l 257 -250 z "},"?":{"ha":818,"x_min":0,"x_max":0,"o":"m 196 246 b 446 988 917 339 943 988 l 69 988 l 69 972 b 149 765 103 950 149 889 l 164 765 b 400 972 164 765 221 972 l 446 972 b 196 263 688 972 733 346 z m 382 1 l 397 1 b 542 29 397 1 465 29 l 542 192 l 514 219 l 499 219 b 354 192 496 219 429 192 l 354 29 z "},"¿":{"ha":818,"x_min":0,"x_max":0,"o":"m 436 694 l 421 694 b 276 667 421 694 353 667 l 276 504 l 304 476 l 319 476 b 464 504 322 476 389 504 l 464 667 z m 622 450 b 372 -292 -99 357 -125 -292 l 749 -292 l 749 -276 b 669 -69 715 -254 669 -193 l 654 -69 b 418 -276 654 -69 597 -276 l 372 -276 b 622 433 131 -276 85 350 z "},"·":{"ha":326,"x_min":0,"x_max":0,"o":"m 257 283 l 257 446 l 229 474 l 214 474 b 69 446 211 474 144 446 l 69 283 l 97 256 l 113 256 b 257 283 113 256 181 283 z "},"•":{"ha":460,"x_min":0,"x_max":0,"o":"m 356 256 l 356 474 l 318 511 l 297 511 b 104 474 294 511 204 474 l 104 256 l 142 218 l 163 218 b 356 256 163 218 253 256 z "},"*":{"ha":389,"x_min":0,"x_max":0,"o":"m 339 860 l 274 860 l 321 907 b 297 943 306 922 297 943 l 293 944 l 283 944 l 236 897 l 236 964 b 194 972 214 964 196 972 l 190 972 l 182 964 l 182 897 l 135 944 b 101 921 121 931 101 922 l 97 918 l 97 907 l 144 860 l 78 860 b 69 818 78 838 69 819 l 69 814 l 78 806 l 143 806 l 97 760 b 121 724 113 744 121 726 l 125 722 l 135 722 l 182 769 l 182 703 b 224 694 204 703 224 694 l 228 694 l 236 703 l 236 769 l 283 722 b 318 746 297 738 318 746 l 321 749 l 321 760 l 275 806 l 339 806 b 347 847 339 828 347 847 l 347 851 z "},"#":{"ha":926,"x_min":0,"x_max":0,"o":"m 926 713 l 926 726 l 828 726 l 885 972 l 871 972 l 814 726 l 263 726 l 319 972 l 306 972 l 249 726 l 124 726 l 124 713 l 246 713 l 147 282 l 40 282 l 40 268 l 143 268 l 110 121 l 0 0 l 149 0 l 178 29 l 124 121 l 157 268 l 708 268 l 675 121 l 565 0 l 714 0 l 743 29 l 689 121 l 722 268 l 843 268 l 843 282 l 726 282 l 825 713 z m 713 282 l 161 282 l 260 713 l 811 713 z "},"/":{"ha":664,"x_min":0,"x_max":0,"o":"m 650 972 l 632 972 l 124 0 l 14 -121 l 163 -121 l 192 -92 l 139 0 z "},"\\":{"ha":664,"x_min":0,"x_max":0,"o":"m 540 0 l 32 972 l 14 972 l 525 0 l 472 -92 l 501 -121 l 650 -121 z "},"(":{"ha":454,"x_min":0,"x_max":0,"o":"m 69 -221 l 97 -249 l 433 -249 l 433 -235 b 194 363 278 -235 194 -25 b 433 958 194 750 279 958 l 433 972 l 214 972 b 69 944 211 972 144 944 z "},")":{"ha":454,"x_min":0,"x_max":0,"o":"m 385 -221 l 385 944 b 240 972 310 944 243 972 l 21 972 l 21 958 b 260 363 175 958 260 750 b 21 -235 260 -25 176 -235 l 21 -249 l 357 -249 z "},"{":{"ha":586,"x_min":0,"x_max":0,"o":"m 565 972 l 283 972 b 139 944 281 972 214 944 l 139 482 l 69 385 l 139 288 l 139 -221 l 167 -249 l 565 -249 l 565 -235 l 225 -235 b 326 -221 253 -228 289 -221 l 257 385 l 326 944 l 313 958 l 565 958 z "},"}":{"ha":586,"x_min":0,"x_max":0,"o":"m 447 482 l 447 944 b 303 972 372 944 306 972 l 21 972 l 21 958 l 274 958 l 260 944 l 329 385 l 260 -221 b 361 -235 299 -221 335 -228 l 21 -235 l 21 -249 l 419 -249 l 447 -221 l 447 288 l 517 385 z "},"[":{"ha":517,"x_min":0,"x_max":0,"o":"m 496 972 l 214 972 b 69 944 211 972 144 944 l 69 -221 l 97 -249 l 496 -249 l 496 -235 l 156 -235 b 257 -221 183 -228 219 -221 l 257 944 l 243 958 l 496 958 z "},"]":{"ha":517,"x_min":0,"x_max":0,"o":"m 303 972 l 21 972 l 21 958 l 274 958 l 260 944 l 260 -221 b 361 -235 299 -221 335 -228 l 21 -235 l 21 -249 l 419 -249 l 447 -221 l 447 944 b 303 972 372 944 306 972 z "},"-":{"ha":663,"x_min":0,"x_max":0,"o":"m 593 469 l 593 549 l 565 576 l 550 576 b 69 549 547 576 332 549 l 69 469 l 97 442 l 113 442 b 593 469 113 442 332 469 z "},"_":{"ha":871,"x_min":0,"x_max":0,"o":"m 801 -157 l 801 -78 l 774 -50 l 758 -50 b 69 -78 756 -50 332 -78 l 69 -157 l 97 -185 l 113 -185 b 801 -157 113 -185 540 -157 z "},"‚":{"ha":326,"x_min":0,"x_max":0,"o":"m 229 218 l 214 218 b 69 190 211 218 144 190 l 69 28 l 97 0 l 113 0 b 213 25 113 0 156 18 l 133 -132 l 147 -132 l 257 28 l 257 190 z "},"„":{"ha":326,"x_min":0,"x_max":0,"o":"m 229 218 l 214 218 b 69 190 211 218 144 190 l 69 28 l 97 0 l 113 0 b 213 25 113 0 156 18 l 133 -132 l 147 -132 l 257 28 l 257 190 z "},"“":{"ha":583,"x_min":0,"x_max":0,"o":"m 214 972 b 69 944 211 972 144 944 l 69 782 l 97 754 l 113 754 b 213 779 113 754 156 772 l 133 622 l 147 622 l 257 782 l 257 944 l 229 972 z m 486 972 l 471 972 b 326 944 468 972 401 944 l 326 782 l 354 754 l 369 754 b 469 779 369 754 413 772 l 390 622 l 404 622 l 514 782 l 514 944 z "},"”":{"ha":583,"x_min":0,"x_max":0,"o":"m 214 972 b 69 944 211 972 144 944 l 69 782 l 97 754 l 113 754 b 213 779 113 754 156 772 l 133 622 l 147 622 l 257 782 l 257 944 l 229 972 z m 486 972 l 471 972 b 326 944 468 972 401 944 l 326 782 l 354 754 l 369 754 b 469 779 369 754 413 772 l 390 622 l 404 622 l 514 782 l 514 944 z "},"‘":{"ha":326,"x_min":0,"x_max":0,"o":"m 229 810 l 214 810 b 114 785 214 810 171 792 l 193 942 l 179 942 l 69 782 l 69 619 l 97 592 l 113 592 b 257 619 115 592 182 619 l 257 782 z "},"’":{"ha":326,"x_min":0,"x_max":0,"o":"m 229 972 l 214 972 b 69 944 211 972 144 944 l 69 782 l 97 754 l 113 754 b 213 779 113 754 156 772 l 133 622 l 147 622 l 257 782 l 257 944 z "},"«":{"ha":992,"x_min":0,"x_max":0,"o":"m 69 347 l 368 0 l 386 0 b 547 32 386 0 457 31 l 278 347 l 547 663 b 386 694 457 664 386 694 l 368 694 z m 444 347 l 743 0 l 761 0 b 922 32 761 0 832 31 l 653 347 l 922 663 b 761 694 832 664 761 694 l 743 694 z "},"»":{"ha":992,"x_min":0,"x_max":0,"o":"m 547 347 l 249 694 l 231 694 b 69 663 231 694 160 664 l 339 347 l 69 32 b 231 0 160 31 231 0 l 249 0 z m 922 347 l 624 694 l 606 694 b 444 663 606 694 535 664 l 714 347 l 444 32 b 606 0 535 31 606 0 l 624 0 z "},"‹":{"ha":617,"x_min":0,"x_max":0,"o":"m 69 347 l 368 0 l 386 0 b 547 32 386 0 457 31 l 278 347 l 547 663 b 386 694 457 664 386 694 l 368 694 z "},"›":{"ha":617,"x_min":0,"x_max":0,"o":"m 547 347 l 249 694 l 231 694 b 69 663 231 694 160 664 l 339 347 l 69 32 b 231 0 160 31 231 0 l 249 0 z "},"\"":{"ha":583,"x_min":0,"x_max":0,"o":"m 214 972 b 69 944 211 972 144 944 l 69 782 l 97 754 l 113 754 b 213 779 113 754 156 772 l 133 622 l 147 622 l 257 782 l 257 944 l 229 972 z m 486 972 l 471 972 b 326 944 468 972 401 944 l 326 782 l 354 754 l 369 754 b 469 779 369 754 413 772 l 390 622 l 404 622 l 514 782 l 514 944 z "},"'":{"ha":326,"x_min":0,"x_max":0,"o":"m 229 972 l 214 972 b 69 944 211 972 144 944 l 69 782 l 97 754 l 113 754 b 213 779 113 754 156 772 l 133 622 l 147 622 l 257 782 l 257 944 z "},"¢":{"ha":725,"x_min":0,"x_max":0,"o":"m 400 774 b 586 629 547 774 586 629 l 599 629 b 656 774 599 717 632 758 l 656 788 l 368 788 l 368 853 l 474 972 l 328 972 l 299 943 l 347 851 l 347 788 b 42 431 172 778 42 643 b 347 75 42 215 214 88 l 347 0 l 368 0 l 368 74 b 654 249 556 74 613 178 l 642 256 b 368 201 572 147 461 136 l 368 774 z m 347 217 b 210 474 285 269 232 357 b 347 774 164 739 265 769 z "},"¤":{"ha":607,"x_min":0,"x_max":0,"o":""},"$":{"ha":722,"x_min":0,"x_max":0,"o":"m 706 324 b 432 582 690 451 617 533 b 354 604 406 589 379 596 l 354 939 b 656 671 543 890 656 671 l 663 674 b 581 972 663 674 578 838 b 354 971 581 972 513 956 l 354 988 l 460 1107 l 314 1107 l 285 1078 l 333 986 l 333 972 b 35 667 179 988 -18 856 b 317 425 68 549 143 485 b 333 419 322 424 328 421 l 333 49 b 22 339 206 92 76 213 l 14 335 b 86 0 85 135 86 0 b 333 6 94 7 163 21 l 333 -137 l 354 -137 l 354 3 b 386 0 364 3 375 1 b 706 324 574 -21 732 161 z m 107 747 b 299 949 47 906 210 957 l 333 944 l 333 610 b 107 747 213 649 126 693 z m 408 32 b 354 42 390 33 372 36 l 354 411 b 632 226 569 332 618 304 b 408 32 651 85 538 17 z "},"€":{"ha":974,"x_min":0,"x_max":0,"o":"m 500 972 l 546 972 b 810 765 753 972 810 765 l 825 765 b 904 972 825 889 871 950 l 904 988 l 500 988 b 44 547 257 988 68 822 l -36 547 l -36 526 l 43 526 b 42 486 42 514 42 500 l 42 485 l -36 485 l -36 464 l 42 464 b 500 -15 54 160 315 -15 b 903 231 764 -15 844 131 l 889 238 b 232 464 721 -19 333 82 l 633 464 l 654 485 l 226 485 l 222 507 b 219 526 221 514 219 519 l 633 526 l 654 547 l 217 547 b 500 972 168 918 388 972 z "},"£":{"ha":892,"x_min":0,"x_max":0,"o":"m 425 972 l 464 972 b 728 765 671 972 728 765 l 743 765 b 822 972 743 889 789 950 l 822 988 l 418 988 b 124 696 336 988 124 974 b 151 513 124 624 136 564 l 69 513 l 69 492 l 158 492 b 208 188 208 351 285 279 l 97 188 l 69 160 l 69 144 b 97 0 69 144 97 76 l 785 0 l 813 28 l 813 43 b 785 188 813 46 785 113 l 233 188 b 319 492 336 285 340 386 l 633 492 l 654 513 l 315 513 b 256 815 293 608 256 710 b 425 972 256 942 325 972 z "},"¥":{"ha":939,"x_min":0,"x_max":0,"o":"m 629 438 l 857 438 l 878 458 l 639 458 l 811 851 l 918 972 l 772 972 l 743 943 l 796 851 l 622 458 l 357 972 l 21 972 l 21 957 b 226 810 115 957 169 910 l 435 458 l 188 458 l 188 438 l 435 438 l 435 396 l 188 396 l 188 375 l 435 375 l 435 28 l 463 0 l 478 0 b 622 28 478 0 546 28 l 622 375 l 857 375 l 878 396 l 622 396 l 622 421 z "},"+":{"ha":871,"x_min":0,"x_max":0,"o":"m 801 389 l 774 417 l 758 417 b 481 401 757 417 635 408 b 472 713 475 508 472 621 l 393 713 l 365 685 l 365 669 b 381 397 365 668 374 549 b 69 389 274 392 161 389 l 69 310 l 97 282 l 113 282 b 385 297 113 282 233 290 b 393 -19 389 189 393 75 l 472 -19 l 500 8 l 500 24 b 485 301 500 24 492 147 b 801 310 593 306 708 310 z "},"−":{"ha":871,"x_min":0,"x_max":0,"o":"m 801 310 l 801 389 l 774 417 l 758 417 b 69 389 756 417 332 389 l 69 310 l 97 282 l 113 282 b 801 310 113 282 540 310 z "},"×":{"ha":717,"x_min":0,"x_max":0,"o":"m 636 175 b 429 361 635 176 543 257 b 643 586 501 439 578 521 l 588 643 l 549 643 l 538 632 b 356 428 536 631 457 540 b 129 643 276 501 194 578 l 74 586 l 74 547 l 85 536 b 288 354 85 536 175 457 b 69 125 214 275 136 192 l 126 69 l 165 69 l 176 79 b 363 288 176 79 258 172 b 592 69 442 214 526 135 l 647 125 l 647 164 z "},"÷":{"ha":871,"x_min":0,"x_max":0,"o":"m 436 468 b 549 582 499 468 549 518 b 436 694 549 644 499 694 b 322 582 372 694 322 644 b 436 468 322 518 372 468 z m 801 310 l 801 389 l 774 417 l 758 417 b 69 389 756 417 332 389 l 69 310 l 97 282 l 113 282 b 801 310 113 282 540 310 z m 436 -19 b 549 94 499 -19 549 31 b 436 207 549 157 499 207 b 322 94 372 207 322 157 b 436 -19 322 31 372 -19 z "},"=":{"ha":871,"x_min":0,"x_max":0,"o":"m 801 476 l 801 556 l 774 583 l 758 583 b 69 556 756 583 332 556 l 69 476 l 97 449 l 113 449 b 801 476 113 449 540 476 z m 801 196 l 801 275 l 774 303 l 758 303 b 69 275 756 303 332 275 l 69 196 l 97 168 l 113 168 b 801 196 113 168 540 196 z "},"≠":{"ha":871,"x_min":0,"x_max":0,"o":"m 801 476 l 801 556 l 774 583 l 758 583 b 567 572 757 583 678 578 l 776 972 l 758 972 l 549 571 b 69 556 404 564 213 556 l 69 476 l 97 449 l 113 449 b 494 468 113 449 296 461 l 399 283 b 69 275 286 279 167 275 l 69 196 l 97 168 l 113 168 b 344 181 113 168 213 175 l 250 0 l 140 -121 l 289 -121 l 318 -92 l 265 0 l 361 182 b 801 196 500 189 671 196 l 801 275 l 774 303 l 758 303 b 415 285 757 303 597 293 l 513 469 b 801 476 613 474 715 476 z "},">":{"ha":801,"x_min":0,"x_max":0,"o":"m 732 347 l 249 694 l 231 694 b 69 663 231 694 160 664 l 524 347 l 69 32 b 231 0 160 31 231 0 l 249 0 z "},"<":{"ha":801,"x_min":0,"x_max":0,"o":"m 69 347 l 553 0 l 571 0 b 732 32 571 0 642 31 l 278 347 l 732 663 b 571 694 642 664 571 694 l 553 694 z "},"≥":{"ha":801,"x_min":0,"x_max":0,"o":"m 732 436 l 304 694 l 286 694 b 69 671 286 694 215 672 l 468 436 l 69 203 b 286 179 215 201 286 179 l 304 179 z m 92 0 l 710 0 l 732 24 l 732 36 b 710 139 732 39 710 76 l 92 139 l 69 115 l 69 103 b 92 0 69 103 92 46 z "},"≤":{"ha":801,"x_min":0,"x_max":0,"o":"m 69 436 l 497 179 l 515 179 b 732 203 515 179 586 201 l 333 436 l 732 671 b 515 694 586 672 515 694 l 497 694 z m 710 0 b 732 103 710 46 732 103 l 732 115 l 710 139 l 92 139 b 69 36 92 76 69 39 l 69 24 l 92 0 z "},"±":{"ha":871,"x_min":0,"x_max":0,"o":"m 774 535 l 758 535 b 481 519 757 535 635 526 b 472 713 475 592 472 663 l 393 713 l 365 685 l 365 669 b 381 515 365 668 374 611 b 69 507 274 510 163 507 l 69 428 l 97 400 l 113 400 b 388 415 113 400 235 408 b 393 206 390 354 393 283 l 472 206 l 500 233 l 500 249 b 486 419 500 249 493 325 b 801 428 594 424 708 428 l 801 507 z m 92 139 l 69 115 l 69 103 b 92 0 69 103 92 46 l 779 0 l 801 24 l 801 36 b 779 139 801 39 779 76 z "},"≈":{"ha":832,"x_min":0,"x_max":0,"o":"m 69 474 l 261 633 l 281 633 b 751 453 399 571 592 367 l 763 425 b 290 453 551 281 421 368 b 86 460 207 507 147 526 z m 69 218 l 261 378 l 281 378 b 751 197 399 315 592 111 l 763 169 b 290 197 551 25 421 113 b 86 204 207 251 147 271 z "},"~":{"ha":832,"x_min":0,"x_max":0,"o":"m 69 339 l 261 499 l 281 499 b 751 318 399 436 592 232 l 763 290 b 290 318 551 146 421 233 b 86 325 207 372 147 392 z "},"¬":{"ha":558,"x_min":0,"x_max":0,"o":"m 344 396 l 21 396 l 21 382 l 315 382 l 301 368 l 301 146 b 446 118 378 146 446 118 l 461 118 l 489 146 l 489 368 b 344 396 414 368 347 396 z "},"^":{"ha":696,"x_min":0,"x_max":0,"o":"m 349 972 l 69 701 l 69 685 b 96 539 69 685 94 621 l 349 783 l 601 539 b 626 685 601 621 626 685 l 626 701 z "},"∅":{"ha":917,"x_min":0,"x_max":0,"o":"m 642 717 l 776 972 l 758 972 l 628 724 b 458 763 576 749 519 763 b 69 375 244 763 69 589 b 268 36 69 229 150 101 l 250 0 l 140 -121 l 289 -121 l 318 -92 l 265 0 l 281 29 b 458 -14 333 1 394 -14 b 847 375 672 -14 847 160 b 642 717 847 522 764 651 z m 90 375 b 458 742 90 576 257 742 b 618 704 515 742 569 728 l 278 54 b 90 375 167 118 90 238 z m 458 7 b 290 47 399 7 340 22 l 632 697 b 826 375 747 636 826 514 b 458 7 826 172 660 7 z "},"∞":{"ha":833,"x_min":0,"x_max":0,"o":""},"∫":{"ha":824,"x_min":0,"x_max":0,"o":"m 754 972 l 514 972 b 369 944 511 972 444 944 l 231 -221 l 244 -235 l 69 -235 l 69 -249 l 418 -249 l 418 -235 l 317 -235 b 418 -221 344 -228 381 -221 l 557 944 l 543 958 l 754 958 z "},"∏":{"ha":974,"x_min":0,"x_max":0,"o":"m 960 972 b 854 1113 915 972 854 1061 l 840 1113 b 550 972 807 1028 732 972 l 24 972 l 14 957 l 225 957 b 128 943 199 950 164 943 l 128 29 l 156 0 l 171 0 b 314 29 171 0 239 29 l 314 943 l 301 957 l 597 957 b 500 943 571 950 536 943 l 500 29 l 528 0 l 543 0 b 686 29 543 0 611 29 l 686 943 l 674 957 l 960 957 z "},"∑":{"ha":914,"x_min":0,"x_max":0,"o":"m 872 972 b 767 1113 828 972 767 1061 l 753 1113 b 463 972 719 1028 644 972 l 24 972 l 14 958 l 400 514 l 117 188 l 79 188 l 51 160 l 51 144 b 79 0 51 144 79 76 l 842 0 l 869 28 l 869 43 b 842 188 869 46 842 113 l 146 188 l 479 572 l 535 636 l 256 958 l 872 958 z "},"√":{"ha":1040,"x_min":0,"x_max":0,"o":"m 1019 972 l 874 972 l 844 943 l 897 851 l 535 78 l 371 543 l 21 543 l 21 528 b 226 381 115 528 189 468 l 408 -122 l 435 -151 l 453 -151 b 606 -122 453 -151 515 -124 l 543 56 l 913 851 z "},"∂":{"ha":790,"x_min":0,"x_max":0,"o":"m 371 988 l 371 972 b 560 704 507 988 560 886 l 560 594 b 410 621 517 611 467 621 b 72 317 218 621 72 539 b 410 -14 72 103 251 -14 b 749 444 593 -14 749 117 b 371 988 749 831 564 1007 z m 410 -1 b 260 289 338 -1 260 51 b 410 607 260 558 310 607 b 560 576 456 607 510 600 l 560 288 b 410 -1 560 103 524 -1 z "},"%":{"ha":922,"x_min":0,"x_max":0,"o":"m 246 588 b 422 781 346 588 422 650 b 246 972 422 908 344 972 b 69 781 147 972 69 906 b 246 588 69 650 147 588 z m 729 972 l 711 972 l 203 0 l 93 -121 l 242 -121 l 271 -92 l 218 0 z m 246 965 b 322 781 292 965 322 936 b 246 594 322 622 292 594 b 169 781 200 594 169 622 b 246 965 169 936 200 965 z m 676 371 b 500 179 578 371 500 304 b 676 -14 500 49 578 -14 b 853 179 776 -14 853 49 b 676 371 853 307 775 371 z m 676 -7 b 600 179 631 -7 600 21 b 676 364 600 335 631 364 b 753 179 722 364 753 335 b 676 -7 753 21 722 -7 z "},"‰":{"ha":1333,"x_min":0,"x_max":0,"o":"m 246 588 b 422 781 346 588 422 650 b 246 972 422 908 344 972 b 69 781 147 972 69 906 b 246 588 69 650 147 588 z m 729 972 l 711 972 l 203 0 l 93 -121 l 242 -121 l 271 -92 l 218 0 z m 246 965 b 322 781 292 965 322 936 b 246 594 322 622 292 594 b 169 781 200 594 169 622 b 246 965 169 936 200 965 z m 676 371 b 500 179 578 371 500 304 b 676 -14 500 49 578 -14 b 853 179 776 -14 853 49 b 676 371 853 307 775 371 z m 1088 371 b 911 179 989 371 911 304 b 1088 -14 911 49 989 -14 b 1264 179 1188 -14 1264 49 b 1088 371 1264 307 1186 371 z m 753 179 b 676 -7 753 21 722 -7 b 600 179 631 -7 600 21 b 676 364 600 335 631 364 b 753 179 722 365 757 344 z m 1164 179 b 1088 -7 1164 21 1133 -7 b 1011 179 1042 -7 1011 21 b 1088 364 1011 335 1042 364 b 1164 179 1133 365 1168 344 z "},"◊":{"ha":857,"x_min":0,"x_max":0,"o":"m 532 972 l 325 972 l 69 486 l 325 0 l 532 0 l 788 486 z m 338 24 l 94 486 l 338 949 l 579 486 z "},"@":{"ha":1286,"x_min":0,"x_max":0,"o":"m 640 994 b 42 403 303 994 42 796 b 975 0 42 -128 606 -393 l 965 1 b 76 403 614 -368 76 -128 b 640 932 76 768 400 932 b 1101 403 876 932 1101 768 b 922 164 1101 68 1006 -21 l 682 694 l 414 694 l 414 683 b 581 571 486 683 551 638 l 607 511 l 406 436 b 324 318 375 410 324 365 b 721 261 324 157 542 39 l 765 164 b 1244 403 836 0 1244 -51 b 640 994 1244 796 974 994 z m 472 414 b 613 501 500 463 578 492 l 715 272 b 472 414 575 113 406 300 z "},"&":{"ha":1054,"x_min":0,"x_max":0,"o":"m 531 643 b 694 806 618 658 694 708 b 496 986 694 919 606 986 b 307 806 408 986 307 919 b 393 608 307 732 326 694 b 83 322 225 574 83 489 b 496 -14 83 119 267 -14 b 794 82 613 -14 717 19 l 857 0 l 878 0 b 1013 25 924 25 968 25 z m 496 965 b 588 806 565 965 588 894 b 524 650 588 731 571 668 l 463 728 b 496 965 388 824 389 965 z m 496 7 b 278 322 350 7 278 164 b 401 597 278 468 318 567 l 788 92 b 496 7 713 35 611 7 z m 885 258 l 992 379 l 846 379 l 807 339 l 869 258 z "},"¶":{"ha":882,"x_min":0,"x_max":0,"o":"m 368 972 b 69 674 203 972 69 839 b 368 374 69 507 203 374 l 368 -250 l 396 -278 l 411 -278 b 556 -250 411 -278 479 -250 l 556 944 l 528 972 z m 785 972 l 769 972 b 625 944 767 972 700 944 l 625 -250 l 653 -278 l 668 -278 b 813 -250 668 -278 736 -250 l 813 944 z "},"§":{"ha":592,"x_min":0,"x_max":0,"o":"m 171 417 b 308 411 196 421 239 419 b 521 596 422 399 535 499 b 160 850 488 796 197 754 b 246 974 122 947 192 979 b 468 803 347 967 468 803 l 476 808 b 426 989 476 808 425 908 b 265 989 426 989 371 979 b 76 788 174 999 39 910 b 422 571 138 608 354 638 b 265 574 389 569 333 568 b 76 372 174 583 39 494 b 442 117 147 165 425 236 b 322 7 450 51 400 -1 b 94 193 253 14 133 101 l 85 189 b 128 -14 126 67 128 -14 b 308 -4 133 -7 151 15 b 521 181 422 -17 535 83 b 171 417 490 367 235 343 z m 246 558 b 406 442 331 553 389 471 b 322 422 385 426 357 418 b 164 529 256 429 203 449 b 246 558 182 553 217 561 z "},"©":{"ha":1085,"x_min":0,"x_max":0,"o":"m 543 986 b 42 488 274 986 42 768 b 543 -14 42 204 274 -14 b 1043 488 811 -14 1043 204 b 543 986 1043 768 811 986 z m 543 7 b 63 488 285 7 63 215 b 543 965 63 757 285 965 b 1022 488 800 965 1022 757 b 543 7 1022 215 800 7 z m 246 478 b 535 161 246 276 415 161 b 789 317 701 161 753 253 l 781 321 b 360 490 671 153 411 228 b 535 785 315 747 461 785 l 564 785 b 731 654 694 785 731 654 l 740 654 b 790 785 740 732 769 771 l 790 794 l 535 794 b 246 478 371 794 246 674 z "},"®":{"ha":400,"x_min":0,"x_max":0,"o":"m 200 972 b 14 788 97 972 14 889 b 200 600 14 683 97 600 b 386 788 300 600 386 683 b 200 972 386 889 300 972 z m 200 629 b 43 788 114 629 43 700 b 200 943 43 872 114 943 b 357 788 283 943 357 872 b 200 629 357 700 283 629 z m 172 804 l 196 804 b 265 847 235 804 265 819 b 199 892 265 885 235 892 b 172 883 190 892 178 886 l 172 885 l 167 892 l 165 892 b 133 885 163 892 147 885 l 133 693 l 139 688 l 140 688 b 172 693 140 688 157 693 l 172 801 l 254 693 b 297 688 278 693 293 688 l 299 688 l 304 693 l 226 797 b 172 804 215 797 190 797 z m 199 890 b 226 847 222 890 226 868 b 199 808 226 824 226 808 l 172 808 l 172 881 b 199 890 178 885 186 890 z "},"™":{"ha":729,"x_min":0,"x_max":0,"o":"m 369 1054 l 369 1060 b 329 1113 353 1060 329 1093 l 325 1113 b 215 1060 313 1081 283 1060 l 18 1060 l 14 1054 l 186 1054 b 149 1049 176 1051 164 1049 l 149 706 l 160 694 l 165 694 b 219 706 165 694 190 706 l 219 1049 l 215 1054 z m 706 1060 l 699 1060 b 644 1050 699 1060 674 1050 l 644 1015 l 578 763 l 578 1050 l 567 1060 l 561 1060 b 507 1050 560 1060 535 1050 l 507 763 l 440 1013 l 440 1050 l 429 1060 l 424 1060 b 369 1050 422 1060 397 1050 l 369 706 l 379 694 l 386 694 b 440 706 386 694 411 706 l 440 992 l 507 742 l 507 706 l 518 694 l 524 694 b 578 706 524 694 549 706 l 578 742 l 644 994 l 644 706 l 656 694 l 661 694 b 715 706 661 694 686 706 l 715 1050 z "},"°":{"ha":400,"x_min":0,"x_max":0,"o":"m 200 600 b 386 788 300 600 386 683 b 200 972 386 889 300 972 b 14 788 97 972 14 889 b 200 600 14 683 97 600 z m 200 667 b 81 788 135 667 81 721 b 200 906 81 851 135 906 b 319 788 264 906 319 851 b 200 667 319 721 264 667 z "},"|":{"ha":326,"x_min":0,"x_max":0,"o":"m 257 -250 l 257 944 l 229 972 l 214 972 b 69 944 211 972 144 944 l 69 -250 l 97 -278 l 113 -278 b 257 -250 113 -278 181 -250 z "},"¦":{"ha":326,"x_min":0,"x_max":0,"o":"m 257 453 l 257 944 l 229 972 l 214 972 b 69 944 211 972 144 944 l 69 453 l 97 425 l 113 425 b 257 453 113 425 181 453 z m 257 -250 l 257 242 l 229 269 l 214 269 b 69 242 211 269 144 242 l 69 -250 l 97 -278 l 113 -278 b 257 -250 113 -278 181 -250 z "},"†":{"ha":833,"x_min":0,"x_max":0,"o":""},"‡":{"ha":833,"x_min":0,"x_max":0,"o":""},"̈":{"ha":0,"x_min":0,"x_max":0,"o":""},"̇":{"ha":0,"x_min":0,"x_max":0,"o":""},"̀":{"ha":0,"x_min":0,"x_max":0,"o":""},"́":{"ha":0,"x_min":0,"x_max":0,"o":""},"̋":{"ha":0,"x_min":0,"x_max":0,"o":""},"̂":{"ha":0,"x_min":0,"x_max":0,"o":""},"̌":{"ha":0,"x_min":0,"x_max":0,"o":""},"̆":{"ha":0,"x_min":0,"x_max":0,"o":""},"̊":{"ha":0,"x_min":0,"x_max":0,"o":""},"̃":{"ha":0,"x_min":0,"x_max":0,"o":""},"̄":{"ha":0,"x_min":0,"x_max":0,"o":""},"̒":{"ha":0,"x_min":0,"x_max":0,"o":""},"̦":{"ha":0,"x_min":0,"x_max":0,"o":""},"̧":{"ha":0,"x_min":0,"x_max":0,"o":""},"̨":{"ha":0,"x_min":0,"x_max":0,"o":""}}}
